<?xml version="1.0" encoding="UTF-8" ?>
<!DOCTYPE svg PUBLIC "-//W3C//DTD SVG 1.1//EN" "http://www.w3.org/Graphics/SVG/1.1/DTD/svg11.dtd">
<svg width="421pt" height="301pt" viewBox="0 0 421 301" version="1.1" xmlns="http://www.w3.org/2000/svg">
<g id="#030100fe">
<path fill="#030100" opacity="1.00" d=" M 191.48 0.00 L 230.52 0.00 C 257.83 2.53 284.92 8.10 310.72 17.40 C 326.09 2.67 348.15 11.87 365.64 16.35 C 379.92 21.92 395.87 26.73 404.68 40.38 C 419.80 62.80 420.12 91.94 419.86 117.93 C 417.17 148.49 412.46 179.83 399.96 207.99 C 390.29 214.49 394.63 225.76 391.09 235.04 C 385.39 253.93 377.02 272.02 366.95 288.97 C 362.64 296.51 354.33 299.17 346.43 301.00 L 310.48 301.00 C 300.29 299.75 288.60 300.28 281.27 291.68 C 234.31 290.28 187.11 291.05 140.13 291.28 C 132.40 299.46 120.91 300.03 110.40 301.00 L 73.55 301.00 C 53.27 298.80 47.81 277.58 39.70 262.34 C 36.15 254.02 32.52 245.69 29.93 237.02 C 25.68 227.93 30.20 216.36 21.62 209.34 C 6.29 178.54 3.32 143.16 0.00 109.36 L 0.00 101.58 C 2.29 79.59 3.25 54.94 18.37 37.33 C 29.02 24.25 46.09 19.82 61.29 14.38 C 77.03 10.06 97.10 4.18 110.08 17.94 C 136.17 8.08 163.76 2.67 191.48 0.00 M 190.28 15.90 C 188.11 15.89 185.95 16.12 183.82 16.48 C 182.55 15.03 178.51 14.82 178.18 17.06 C 177.62 17.10 176.48 17.18 175.91 17.22 C 175.42 17.24 174.45 17.27 173.97 17.29 C 172.59 16.28 171.71 16.50 171.31 17.94 C 170.47 18.07 168.79 18.33 167.95 18.46 C 167.18 17.19 164.03 17.19 164.19 19.02 C 163.39 19.10 161.79 19.26 160.99 19.34 C 159.56 18.21 158.60 18.45 158.10 20.06 C 157.58 20.12 156.54 20.25 156.02 20.32 C 154.58 19.21 153.62 19.46 153.13 21.06 C 152.60 21.08 151.55 21.13 151.03 21.15 C 150.54 21.37 149.56 21.82 149.06 22.04 C 148.55 22.07 147.54 22.12 147.03 22.15 C 146.54 22.37 145.55 22.82 145.06 23.04 C 144.55 23.07 143.54 23.13 143.03 23.16 C 142.54 23.38 141.55 23.82 141.06 24.04 C 140.56 24.05 139.54 24.09 139.03 24.11 C 138.57 24.38 137.66 24.93 137.21 25.21 C 135.47 25.44 133.75 25.82 132.07 26.30 C 131.59 26.51 130.62 26.93 130.14 27.15 C 128.75 27.38 127.40 27.80 126.08 28.28 C 125.59 28.50 124.63 28.94 124.15 29.15 C 122.08 29.62 120.08 30.32 118.10 31.05 C 109.75 31.90 117.65 48.87 115.07 55.06 C 114.77 65.38 115.02 75.72 115.06 86.04 C 115.26 90.12 113.56 96.79 115.98 98.99 C 115.91 102.56 116.12 106.11 116.38 109.66 C 116.68 113.33 114.23 120.26 116.99 121.99 C 116.99 123.36 117.15 124.72 117.47 126.05 C 116.34 127.36 116.35 128.71 117.47 130.08 C 116.55 131.24 116.22 134.12 117.65 134.80 C 117.56 137.85 120.29 135.68 119.10 133.79 C 119.27 133.37 119.63 132.53 119.81 132.11 C 121.01 131.06 121.22 129.44 120.99 127.95 C 121.17 127.45 121.55 126.47 121.74 125.97 C 122.47 125.17 122.88 124.22 122.98 123.13 C 125.81 118.42 129.52 113.75 130.58 108.32 L 130.95 107.64 C 132.39 108.74 134.92 106.43 133.68 104.93 C 134.03 104.46 134.72 103.50 135.06 103.03 C 136.83 103.29 137.39 102.57 136.75 100.86 C 138.10 99.72 139.39 98.37 139.91 96.64 C 141.30 97.48 143.48 95.30 142.64 93.91 C 144.81 93.20 146.40 91.39 147.67 89.57 C 149.31 90.12 150.03 89.56 149.82 87.88 C 152.04 87.23 153.36 85.07 154.81 83.41 C 156.35 84.36 159.34 82.72 158.78 80.80 L 159.60 80.41 C 161.07 81.34 164.21 79.95 163.73 78.07 C 165.03 78.01 166.11 77.51 166.98 76.57 C 168.11 77.74 171.20 76.62 170.70 74.89 C 173.92 74.41 177.22 73.53 179.99 71.75 C 180.48 71.56 181.47 71.16 181.97 70.96 C 182.47 70.93 183.47 70.88 183.97 70.85 C 184.46 70.63 185.45 70.18 185.94 69.96 C 186.44 69.93 187.45 69.87 187.96 69.84 C 188.45 69.63 189.43 69.20 189.92 68.98 C 190.69 68.94 192.23 68.87 193.00 68.83 C 193.48 68.61 194.46 68.18 194.95 67.96 C 195.45 67.94 196.47 67.92 196.97 67.90 C 197.42 67.62 198.33 67.05 198.78 66.76 L 199.60 66.64 C 205.81 67.25 212.07 67.02 218.31 66.75 C 218.76 66.78 219.67 66.84 220.13 66.88 C 220.61 67.12 221.56 67.62 222.03 67.86 C 222.54 67.89 223.55 67.93 224.05 67.96 C 224.54 68.18 225.52 68.62 226.00 68.83 C 226.77 68.87 228.31 68.94 229.08 68.98 C 229.57 69.20 230.55 69.63 231.04 69.84 C 231.55 69.87 232.56 69.93 233.06 69.96 C 233.55 70.18 234.54 70.63 235.03 70.85 C 235.53 70.88 236.53 70.93 237.03 70.96 C 237.53 71.15 238.52 71.54 239.02 71.74 C 239.90 73.14 241.58 73.16 243.05 72.98 C 243.54 73.17 244.54 73.54 245.03 73.73 C 245.79 74.75 246.80 75.17 248.05 74.99 C 248.55 75.18 249.54 75.55 250.04 75.74 C 251.33 77.03 253.15 77.50 254.85 78.01 C 256.32 80.24 258.95 81.11 261.42 81.71 C 261.82 82.04 262.62 82.70 263.02 83.03 C 262.68 84.82 263.38 85.40 265.12 84.78 C 265.97 85.66 266.90 86.68 268.18 86.89 C 267.96 88.56 268.68 89.13 270.32 88.58 C 271.24 90.13 272.65 91.41 274.39 91.98 C 273.99 93.86 276.55 96.13 278.42 95.52 C 277.50 96.98 279.49 99.51 281.08 98.66 C 281.82 100.76 283.62 102.20 285.19 103.69 C 288.32 109.92 292.13 116.25 296.14 122.14 L 296.37 122.95 C 296.54 123.45 296.88 124.45 297.05 124.95 C 297.65 128.48 299.06 131.83 300.34 135.16 C 300.44 135.62 300.65 136.53 300.75 136.99 C 300.84 137.43 301.04 138.30 301.13 138.74 C 300.63 143.90 305.02 140.36 302.92 137.17 C 302.87 136.44 302.77 134.98 302.72 134.26 C 302.89 132.85 302.98 131.44 302.98 130.02 C 305.69 128.66 302.73 122.32 303.73 119.75 C 303.93 117.17 304.02 114.59 304.00 112.01 C 307.39 110.88 303.68 102.87 304.94 99.95 C 305.17 97.21 304.99 94.46 304.74 91.74 C 304.94 89.84 305.04 87.93 305.03 86.02 C 307.03 78.09 306.47 62.88 305.03 55.00 C 304.99 52.44 304.83 49.89 304.55 47.35 C 304.96 42.43 306.39 35.08 303.91 31.95 C 303.66 31.72 303.18 31.27 302.93 31.04 C 302.44 30.86 301.44 30.48 300.95 30.30 C 299.96 29.74 298.92 29.33 297.82 29.07 C 297.34 28.83 296.38 28.35 295.90 28.11 L 294.94 28.06 C 294.45 27.83 293.45 27.38 292.96 27.15 L 292.01 27.06 C 291.50 26.89 290.47 26.56 289.95 26.40 C 286.92 25.66 283.95 24.64 280.89 24.07 C 280.41 23.84 279.44 23.37 278.96 23.14 C 278.46 23.12 277.45 23.06 276.94 23.04 C 276.45 22.82 275.46 22.39 274.97 22.17 C 274.44 22.14 273.38 22.07 272.85 22.04 C 272.46 20.43 271.91 20.34 271.20 21.80 C 270.10 21.41 268.98 21.17 267.83 21.08 C 267.37 19.45 266.42 19.20 264.98 20.32 C 264.45 20.25 263.39 20.12 262.86 20.05 C 262.48 18.43 261.93 18.34 261.21 19.79 C 260.09 19.40 258.94 19.16 257.77 19.08 C 258.01 17.22 254.81 17.14 254.06 18.46 C 252.65 18.02 251.22 17.87 249.75 18.03 C 250.44 16.36 246.80 16.04 247.29 17.81 C 245.81 17.40 244.32 16.94 242.77 17.02 C 242.68 15.01 239.12 15.27 238.08 16.51 C 236.10 15.97 234.04 15.95 232.01 15.97 C 230.97 13.79 226.43 15.37 224.02 15.07 C 214.99 14.96 205.90 14.60 196.90 15.45 C 195.17 14.29 191.34 14.09 190.28 15.90 M 82.83 24.74 C 63.48 29.62 40.07 33.16 27.05 50.07 C 23.78 56.72 20.06 63.66 19.03 71.07 C 18.81 71.56 18.38 72.53 18.17 73.02 C 18.13 73.78 18.06 75.30 18.02 76.07 C 17.81 76.55 17.38 77.53 17.17 78.02 C 17.13 78.78 17.06 80.30 17.02 81.07 C 16.81 81.55 16.39 82.53 16.18 83.01 C 15.92 85.75 15.88 88.49 16.06 91.25 C 13.82 91.50 14.07 95.57 15.48 96.82 C 14.43 103.49 14.83 110.35 15.35 117.03 C 14.22 118.44 14.45 119.38 16.06 119.84 C 15.95 122.88 15.53 126.05 16.35 129.03 C 15.20 130.44 15.43 131.38 17.04 131.85 C 16.92 134.64 17.19 137.50 18.09 140.16 C 21.65 160.60 24.71 181.66 33.39 200.66 C 43.54 215.78 63.18 208.10 78.07 207.90 C 80.71 208.18 83.35 208.16 86.00 207.83 C 86.48 207.62 87.44 207.19 87.92 206.97 C 89.96 207.12 92.08 207.19 94.06 206.53 C 94.81 207.79 97.96 207.79 97.79 205.97 C 104.14 207.07 114.64 205.31 110.85 196.00 C 110.63 195.52 110.19 194.56 109.96 194.08 C 109.95 191.03 109.25 188.03 108.66 185.06 C 108.49 184.55 108.16 183.54 107.99 183.04 C 107.90 182.28 107.74 180.76 107.66 180.00 C 108.80 178.57 108.56 177.63 106.95 177.16 C 106.94 173.06 106.47 168.91 105.51 164.93 C 106.79 164.19 106.81 161.02 104.97 161.21 C 105.09 159.15 105.15 157.06 104.80 155.02 C 104.59 154.53 104.18 153.56 103.97 153.08 C 103.89 151.30 103.73 147.75 103.65 145.97 C 104.79 144.56 104.56 143.62 102.96 143.14 C 102.98 142.39 103.02 140.87 103.04 140.12 C 99.91 105.56 98.94 70.72 100.87 36.08 C 101.93 25.82 90.90 21.63 82.83 24.74 M 320.80 30.85 C 320.77 86.11 320.15 142.25 309.99 197.00 C 306.93 209.18 322.80 204.41 329.15 206.79 C 346.19 206.80 365.60 214.74 381.45 206.50 C 395.86 191.91 395.67 169.15 401.09 150.26 C 402.16 147.95 402.45 145.48 401.96 142.85 C 403.56 142.37 403.79 141.42 402.66 140.01 C 402.74 139.22 402.89 137.65 402.97 136.87 C 404.56 136.36 404.78 135.40 403.60 134.00 C 405.19 126.45 405.14 118.69 405.02 111.02 C 407.61 110.65 406.30 100.23 405.03 100.01 C 405.06 93.32 404.53 86.65 403.76 80.02 C 403.57 79.53 403.17 78.54 402.97 78.05 C 402.74 72.53 400.71 67.19 398.81 62.02 C 391.52 34.97 359.58 30.23 336.45 24.45 C 330.71 23.15 322.53 24.18 320.80 30.85 M 203.47 82.55 C 160.95 84.29 125.27 126.07 130.64 168.33 C 132.82 211.31 175.65 246.78 218.33 240.37 C 260.84 237.13 295.17 194.02 288.26 151.85 C 284.49 111.04 244.30 77.80 203.47 82.55 M 291.50 209.49 C 280.55 227.14 264.22 242.55 244.28 249.35 C 203.31 266.76 152.20 249.45 129.02 211.80 C 132.97 233.31 138.71 254.45 143.30 275.82 C 187.76 276.21 232.28 275.96 276.76 275.93 C 281.84 255.16 289.21 228.12 291.50 209.49 M 114.28 218.42 C 90.58 222.75 66.09 225.65 42.01 224.15 C 47.86 245.08 56.19 265.74 68.20 283.87 C 86.23 288.60 105.20 285.13 123.63 284.67 C 131.72 282.30 127.00 271.91 126.02 265.99 C 121.02 250.74 119.67 232.46 114.28 218.42 M 305.25 219.13 C 301.01 238.15 296.81 257.17 292.12 276.08 C 290.21 281.04 295.60 285.07 299.97 285.02 C 317.33 285.70 335.74 288.61 352.35 283.34 C 363.92 265.38 373.49 245.10 378.07 224.13 C 353.81 226.13 329.47 221.04 305.25 219.13 Z" />
</g>
<g id="#8d4d21ff">
<path fill="#8d4d21" opacity="1.00" d=" M 190.28 15.90 C 191.34 14.09 195.17 14.29 196.90 15.45 L 196.75 15.95 C 195.13 15.93 191.90 15.91 190.28 15.90 Z" />
<path fill="#8d4d21" opacity="1.00" d=" M 224.02 15.07 C 226.43 15.37 230.97 13.79 232.01 15.97 C 229.33 16.02 226.65 16.04 223.98 16.03 L 224.02 15.07 Z" />
<path fill="#8d4d21" opacity="1.00" d=" M 178.18 17.06 C 178.51 14.82 182.55 15.03 183.82 16.48 C 182.41 16.63 179.59 16.91 178.18 17.06 Z" />
<path fill="#8d4d21" opacity="1.00" d=" M 238.08 16.51 C 239.12 15.27 242.68 15.01 242.77 17.02 C 241.18 17.16 239.59 17.00 238.08 16.51 Z" />
<path fill="#8d4d21" opacity="1.00" d=" M 171.31 17.94 C 171.71 16.50 172.59 16.28 173.97 17.29 L 173.88 18.05 C 173.24 18.02 171.96 17.97 171.31 17.94 Z" />
<path fill="#8d4d21" opacity="1.00" d=" M 247.29 17.81 C 246.80 16.04 250.44 16.36 249.75 18.03 C 249.13 17.97 247.90 17.86 247.29 17.81 Z" />
<path fill="#8d4d21" opacity="1.00" d=" M 164.19 19.02 C 164.03 17.19 167.18 17.19 167.95 18.46 C 166.77 19.01 165.47 19.20 164.19 19.02 Z" />
<path fill="#8d4d21" opacity="1.00" d=" M 254.06 18.46 C 254.81 17.14 258.01 17.22 257.77 19.08 C 256.49 19.18 255.22 18.99 254.06 18.46 Z" />
<path fill="#8d4d21" opacity="1.00" d=" M 158.10 20.06 C 158.60 18.45 159.56 18.21 160.99 19.34 C 160.13 20.02 159.17 20.26 158.10 20.06 Z" />
<path fill="#8d4d21" opacity="1.00" d=" M 261.21 19.79 C 261.93 18.34 262.48 18.43 262.86 20.05 C 262.45 19.98 261.62 19.85 261.21 19.79 Z" />
<path fill="#8d4d21" opacity="1.00" d=" M 153.13 21.06 C 153.62 19.46 154.58 19.21 156.02 20.32 C 155.17 21.01 154.20 21.26 153.13 21.06 Z" />
<path fill="#8d4d21" opacity="1.00" d=" M 264.98 20.32 C 266.42 19.20 267.37 19.45 267.83 21.08 C 266.76 21.26 265.81 21.00 264.98 20.32 Z" />
<path fill="#8d4d21" opacity="1.00" d=" M 149.06 22.04 C 149.56 21.82 150.54 21.37 151.03 21.15 C 150.54 21.37 149.56 21.82 149.06 22.04 Z" />
<path fill="#8d4d21" opacity="1.00" d=" M 271.20 21.80 C 271.91 20.34 272.46 20.43 272.85 22.04 C 272.44 21.98 271.61 21.86 271.20 21.80 Z" />
<path fill="#8d4d21" opacity="1.00" d=" M 145.06 23.04 C 145.55 22.82 146.54 22.37 147.03 22.15 C 146.54 22.37 145.55 22.82 145.06 23.04 Z" />
<path fill="#8d4d21" opacity="1.00" d=" M 274.97 22.17 C 275.46 22.39 276.45 22.82 276.94 23.04 C 276.45 22.82 275.46 22.39 274.97 22.17 Z" />
<path fill="#8d4d21" opacity="1.00" d=" M 141.06 24.04 C 141.55 23.82 142.54 23.38 143.03 23.16 C 142.54 23.38 141.55 23.82 141.06 24.04 Z" />
<path fill="#8d4d21" opacity="1.00" d=" M 278.96 23.14 C 279.44 23.37 280.41 23.84 280.89 24.07 C 280.41 23.84 279.44 23.37 278.96 23.14 Z" />
<path fill="#8d4d21" opacity="1.00" d=" M 82.83 24.74 C 90.90 21.63 101.93 25.82 100.87 36.08 C 98.94 70.72 99.91 105.56 103.04 140.12 C 83.90 123.18 59.17 147.81 65.00 168.98 C 66.27 182.72 71.44 195.89 78.07 207.90 C 63.18 208.10 43.54 215.78 33.39 200.66 C 24.71 181.66 21.65 160.60 18.09 140.16 C 27.87 138.56 35.57 130.99 37.00 121.04 C 43.02 103.46 31.95 85.03 39.88 67.86 C 41.08 61.14 35.72 44.78 27.05 50.07 C 40.07 33.16 63.48 29.62 82.83 24.74 Z" />
<path fill="#8d4d21" opacity="1.00" d=" M 137.21 25.21 C 137.66 24.93 138.57 24.38 139.03 24.11 C 138.57 24.38 137.66 24.93 137.21 25.21 Z" />
<path fill="#8d4d21" opacity="1.00" d=" M 320.80 30.85 C 322.53 24.18 330.71 23.15 336.45 24.45 C 359.58 30.23 391.52 34.97 398.81 62.02 C 382.56 55.46 368.15 76.52 377.49 90.55 C 382.43 97.31 374.47 103.61 373.44 110.44 C 367.42 127.62 379.42 156.06 401.09 150.26 C 395.67 169.15 395.86 191.91 381.45 206.50 C 365.60 214.74 346.19 206.80 329.15 206.79 C 322.80 204.41 306.93 209.18 309.99 197.00 C 320.15 142.25 320.77 86.11 320.80 30.85 Z" />
<path fill="#8d4d21" opacity="1.00" d=" M 130.14 27.15 C 130.62 26.93 131.59 26.51 132.07 26.30 C 131.59 26.51 130.62 26.93 130.14 27.15 Z" />
<path fill="#8d4d21" opacity="1.00" d=" M 289.95 26.40 C 290.47 26.56 291.50 26.89 292.01 27.06 C 291.50 26.89 290.47 26.56 289.95 26.40 Z" />
<path fill="#8d4d21" opacity="1.00" d=" M 292.96 27.15 C 293.45 27.38 294.45 27.83 294.94 28.06 C 294.45 27.83 293.45 27.38 292.96 27.15 Z" />
<path fill="#8d4d21" opacity="1.00" d=" M 124.15 29.15 C 124.63 28.94 125.59 28.50 126.08 28.28 C 125.59 28.50 124.63 28.94 124.15 29.15 Z" />
<path fill="#8d4d21" opacity="1.00" d=" M 295.90 28.11 C 296.38 28.35 297.34 28.83 297.82 29.07 C 297.34 28.83 296.38 28.35 295.90 28.11 Z" />
<path fill="#8d4d21" opacity="1.00" d=" M 300.95 30.30 C 301.44 30.48 302.44 30.86 302.93 31.04 C 302.44 30.86 301.44 30.48 300.95 30.30 Z" />
<path fill="#8d4d21" opacity="1.00" d=" M 115.07 55.06 C 117.65 48.87 109.75 31.90 118.10 31.05 C 112.24 36.92 117.94 47.57 116.01 54.95 L 115.07 55.06 Z" />
<path fill="#8d4d21" opacity="1.00" d=" M 305.03 55.00 C 306.47 62.88 307.03 78.09 305.03 86.02 C 304.92 75.68 304.99 65.34 305.03 55.00 Z" />
<path fill="#8d4d21" opacity="1.00" d=" M 196.97 67.90 C 197.42 67.62 198.33 67.05 198.78 66.76 C 198.33 67.05 197.42 67.62 196.97 67.90 Z" />
<path fill="#8d4d21" opacity="1.00" d=" M 220.13 66.88 C 220.61 67.12 221.56 67.62 222.03 67.86 C 221.56 67.62 220.61 67.12 220.13 66.88 Z" />
<path fill="#8d4d21" opacity="1.00" d=" M 193.00 68.83 C 193.48 68.61 194.46 68.18 194.95 67.96 C 194.46 68.18 193.48 68.61 193.00 68.83 Z" />
<path fill="#8d4d21" opacity="1.00" d=" M 224.05 67.96 C 224.54 68.18 225.52 68.62 226.00 68.83 C 225.52 68.62 224.54 68.18 224.05 67.96 Z" />
<path fill="#8d4d21" opacity="1.00" d=" M 187.96 69.84 C 188.45 69.63 189.43 69.20 189.92 68.98 C 189.43 69.20 188.45 69.63 187.96 69.84 Z" />
<path fill="#8d4d21" opacity="1.00" d=" M 229.08 68.98 C 229.57 69.20 230.55 69.63 231.04 69.84 C 230.55 69.63 229.57 69.20 229.08 68.98 Z" />
<path fill="#8d4d21" opacity="1.00" d=" M 183.97 70.85 C 184.46 70.63 185.45 70.18 185.94 69.96 C 185.45 70.18 184.46 70.63 183.97 70.85 Z" />
<path fill="#8d4d21" opacity="1.00" d=" M 233.06 69.96 C 233.55 70.18 234.54 70.63 235.03 70.85 C 234.54 70.63 233.55 70.18 233.06 69.96 Z" />
<path fill="#8d4d21" opacity="1.00" d=" M 18.17 73.02 C 18.38 72.53 18.81 71.56 19.03 71.07 C 18.81 71.56 18.38 72.53 18.17 73.02 Z" />
<path fill="#8d4d21" opacity="1.00" d=" M 179.99 71.75 C 180.48 71.56 181.47 71.16 181.97 70.96 C 181.47 71.16 180.48 71.56 179.99 71.75 Z" />
<path fill="#8d4d21" opacity="1.00" d=" M 237.03 70.96 C 237.53 71.15 238.52 71.54 239.02 71.74 C 238.52 71.54 237.53 71.15 237.03 70.96 Z" />
<path fill="#8d4d21" opacity="1.00" d=" M 243.05 72.98 C 243.54 73.17 244.54 73.54 245.03 73.73 C 244.54 73.54 243.54 73.17 243.05 72.98 Z" />
<path fill="#8d4d21" opacity="1.00" d=" M 166.98 76.57 C 167.91 75.46 169.24 74.85 170.70 74.89 C 171.20 76.62 168.11 77.74 166.98 76.57 Z" />
<path fill="#8d4d21" opacity="1.00" d=" M 248.05 74.99 C 248.55 75.18 249.54 75.55 250.04 75.74 C 249.54 75.55 248.55 75.18 248.05 74.99 Z" />
<path fill="#8d4d21" opacity="1.00" d=" M 17.17 78.02 C 17.38 77.53 17.81 76.55 18.02 76.07 C 17.81 76.55 17.38 77.53 17.17 78.02 Z" />
<path fill="#8d4d21" opacity="1.00" d=" M 159.60 80.41 C 160.65 79.16 162.03 78.13 163.73 78.07 C 164.21 79.95 161.07 81.34 159.60 80.41 Z" />
<path fill="#8d4d21" opacity="1.00" d=" M 254.85 78.01 C 257.39 78.52 259.76 79.67 261.42 81.71 C 258.95 81.11 256.32 80.24 254.85 78.01 Z" />
<path fill="#8d4d21" opacity="1.00" d=" M 402.97 78.05 C 403.17 78.54 403.57 79.53 403.76 80.02 C 403.57 79.53 403.17 78.54 402.97 78.05 Z" />
<path fill="#8d4d21" opacity="1.00" d=" M 16.18 83.01 C 16.39 82.53 16.81 81.55 17.02 81.07 C 16.81 81.55 16.39 82.53 16.18 83.01 Z" />
<path fill="#8d4d21" opacity="1.00" d=" M 154.81 83.41 C 155.65 81.94 157.24 81.29 158.78 80.80 C 159.34 82.72 156.35 84.36 154.81 83.41 Z" />
<path fill="#8d4d21" opacity="1.00" d=" M 203.47 82.55 C 244.30 77.80 284.49 111.04 288.26 151.85 C 295.17 194.02 260.84 237.13 218.33 240.37 C 175.65 246.78 132.82 211.31 130.64 168.33 C 125.27 126.07 160.95 84.29 203.47 82.55 M 201.31 105.95 C 200.47 106.05 198.81 106.24 197.97 106.34 C 196.54 105.23 195.57 105.48 195.07 107.09 L 194.07 107.16 C 193.57 107.38 192.56 107.83 192.06 108.05 L 191.10 108.11 C 190.62 108.36 189.66 108.84 189.18 109.08 C 185.92 110.19 182.99 112.11 180.08 113.91 C 179.96 111.75 176.64 113.64 178.20 115.01 C 177.69 115.31 176.66 115.92 176.14 116.22 C 174.37 115.70 173.71 116.33 174.15 118.10 C 173.62 118.44 172.56 119.11 172.03 119.44 C 170.05 118.04 167.04 120.98 168.41 122.98 C 167.49 123.92 166.74 125.01 166.11 126.16 C 164.30 125.74 163.71 126.42 164.32 128.20 C 161.72 132.41 158.87 136.56 157.07 141.18 C 156.84 141.66 156.36 142.63 156.13 143.12 L 156.07 144.12 C 154.47 144.61 154.20 145.60 155.26 147.09 C 153.58 147.52 153.27 148.48 154.33 149.95 C 154.23 150.77 154.03 152.42 153.93 153.24 C 152.06 153.54 152.42 156.90 153.57 158.00 C 152.36 160.05 152.36 162.95 153.57 165.00 C 152.42 166.10 152.06 169.46 153.93 169.75 C 153.99 170.56 154.11 172.19 154.17 173.00 C 154.39 173.49 154.82 174.46 155.04 174.95 C 155.07 175.46 155.13 176.48 155.16 177.00 C 155.39 177.49 155.84 178.48 156.07 178.97 L 156.14 179.92 C 156.36 180.41 156.81 181.39 157.04 181.87 C 157.59 185.07 159.26 188.10 161.14 190.75 C 161.24 193.05 162.19 196.12 164.98 196.13 C 165.28 196.53 165.86 197.33 166.16 197.73 C 166.02 201.42 170.07 203.86 173.15 204.91 C 173.61 205.19 174.53 205.77 174.99 206.06 C 174.69 207.82 175.40 208.40 177.12 207.77 C 178.12 208.93 179.36 209.99 180.94 210.17 C 180.78 211.90 181.55 212.43 183.23 211.76 L 184.11 211.98 C 183.51 213.87 186.73 214.98 187.91 213.65 C 189.99 215.09 192.50 216.13 195.06 215.97 C 195.55 216.19 196.52 216.61 197.01 216.83 C 197.82 216.88 199.45 217.00 200.27 217.05 C 200.71 217.23 201.58 217.59 202.02 217.76 C 202.48 217.79 203.40 217.83 203.87 217.85 C 207.98 218.23 212.08 218.14 216.16 217.59 C 217.21 218.58 220.70 218.92 220.64 217.01 C 221.22 216.97 222.38 216.89 222.96 216.85 C 223.45 216.63 224.43 216.20 224.92 215.98 C 230.33 215.55 235.42 212.61 239.91 209.76 C 241.61 210.37 242.35 209.79 242.14 208.02 L 242.87 207.69 C 244.33 209.06 247.11 206.77 245.86 205.13 C 248.77 203.28 251.07 200.60 253.12 197.86 C 254.77 199.13 257.07 196.32 255.68 194.86 L 256.04 194.12 C 257.80 194.33 258.38 193.57 257.80 191.87 L 258.07 191.12 C 259.82 191.34 260.39 190.60 259.77 188.91 C 261.84 185.62 263.66 181.83 263.98 177.92 C 264.20 177.43 264.63 176.45 264.84 175.96 C 264.87 175.46 264.93 174.46 264.96 173.95 C 265.17 173.46 265.59 172.48 265.81 171.99 C 265.98 170.67 266.05 169.35 266.03 168.02 C 268.61 167.60 267.32 157.27 266.04 156.99 C 266.12 155.67 265.95 154.39 265.54 153.16 C 265.44 152.64 265.24 151.60 265.14 151.08 C 265.02 150.56 264.80 149.53 264.68 149.01 C 265.77 147.56 265.51 146.59 263.91 146.08 L 263.83 145.07 C 263.61 144.57 263.18 143.56 262.96 143.06 L 262.95 142.08 C 262.62 141.67 261.96 140.83 261.63 140.41 C 261.06 138.63 260.38 136.89 259.64 135.18 C 260.35 133.47 259.81 132.74 258.03 132.99 C 257.69 132.00 257.28 131.04 256.79 130.12 C 257.29 128.36 256.67 127.71 254.91 128.16 C 254.64 127.70 254.11 126.78 253.84 126.32 C 253.66 122.27 249.28 119.42 245.84 118.14 C 244.89 117.33 243.83 116.66 242.76 116.05 C 244.35 114.73 241.09 112.72 240.94 114.89 C 239.93 114.16 238.91 113.43 237.81 112.86 C 238.68 110.49 234.71 109.00 233.09 110.45 C 232.07 109.86 231.00 109.40 229.88 109.06 C 229.39 108.86 228.41 108.48 227.92 108.29 C 226.55 107.79 225.15 107.39 223.73 107.15 C 223.47 105.48 222.95 105.36 222.15 106.80 C 220.73 106.30 219.25 105.92 217.74 106.01 C 218.12 104.22 214.06 103.99 214.33 105.81 C 211.83 105.23 209.36 105.08 206.92 105.36 C 206.18 105.35 204.71 105.35 203.98 105.35 C 202.59 104.30 201.70 104.50 201.31 105.95 Z" />
<path fill="#8d4d21" opacity="1.00" d=" M 263.02 83.03 C 263.97 83.30 264.67 83.88 265.12 84.78 C 263.38 85.40 262.68 84.82 263.02 83.03 Z" />
<path fill="#8d4d21" opacity="1.00" d=" M 115.06 86.04 L 116.02 85.97 C 116.06 90.31 116.03 94.65 115.98 98.99 C 113.56 96.79 115.26 90.12 115.06 86.04 Z" />
<path fill="#8d4d21" opacity="1.00" d=" M 268.18 86.89 C 269.25 86.98 269.96 87.55 270.32 88.58 C 268.68 89.13 267.96 88.56 268.18 86.89 Z" />
<path fill="#8d4d21" opacity="1.00" d=" M 147.67 89.57 C 148.03 88.55 148.75 87.98 149.82 87.88 C 150.03 89.56 149.31 90.12 147.67 89.57 Z" />
<path fill="#8d4d21" opacity="1.00" d=" M 15.48 96.82 C 14.07 95.57 13.82 91.50 16.06 91.25 C 15.91 92.64 15.62 95.43 15.48 96.82 Z" />
<path fill="#8d4d21" opacity="1.00" d=" M 274.39 91.98 C 276.29 92.39 277.55 93.87 278.42 95.52 C 276.55 96.13 273.99 93.86 274.39 91.98 Z" />
<path fill="#8d4d21" opacity="1.00" d=" M 303.96 100.03 L 304.94 99.95 C 303.68 102.87 307.39 110.88 304.00 112.01 C 303.92 108.02 303.91 104.02 303.96 100.03 Z" />
<path fill="#8d4d21" opacity="1.00" d=" M 405.03 100.01 C 406.30 100.23 407.61 110.65 405.02 111.02 C 404.93 107.35 404.95 103.67 405.03 100.01 Z" />
<path fill="#8d4d21" opacity="1.00" d=" M 135.06 103.03 C 135.28 102.04 135.84 101.32 136.75 100.86 C 137.39 102.57 136.83 103.29 135.06 103.03 Z" />
<path fill="#8d4d21" opacity="1.00" d=" M 285.19 103.69 C 290.35 108.65 294.07 115.33 296.14 122.14 C 292.13 116.25 288.32 109.92 285.19 103.69 Z" />
<path fill="#8d4d21" opacity="1.00" d=" M 130.95 107.64 C 131.37 106.32 132.53 105.56 133.68 104.93 C 134.92 106.43 132.39 108.74 130.95 107.64 Z" />
<path fill="#8d4d21" opacity="1.00" d=" M 122.98 123.13 C 123.72 117.47 127.26 112.77 130.58 108.32 C 129.52 113.75 125.81 118.42 122.98 123.13 Z" />
<path fill="#8d4d21" opacity="1.00" d=" M 116.38 109.66 C 116.70 113.76 116.87 117.87 116.99 121.99 C 114.23 120.26 116.68 113.33 116.38 109.66 Z" />
<path fill="#8d4d21" opacity="1.00" d=" M 15.35 117.03 C 16.06 117.85 16.29 118.79 16.06 119.84 C 14.45 119.38 14.22 118.44 15.35 117.03 Z" />
<path fill="#8d4d21" opacity="1.00" d=" M 302.98 130.02 C 302.97 126.58 303.34 123.15 303.73 119.75 C 302.73 122.32 305.69 128.66 302.98 130.02 Z" />
<path fill="#8d4d21" opacity="1.00" d=" M 296.37 122.95 C 296.54 123.45 296.88 124.45 297.05 124.95 C 296.88 124.45 296.54 123.45 296.37 122.95 Z" />
<path fill="#8d4d21" opacity="1.00" d=" M 120.99 127.95 C 121.17 127.45 121.55 126.47 121.74 125.97 C 121.55 126.47 121.17 127.45 120.99 127.95 Z" />
<path fill="#8d4d21" opacity="1.00" d=" M 16.35 129.03 C 17.03 129.85 17.26 130.79 17.04 131.85 C 15.43 131.38 15.20 130.44 16.35 129.03 Z" />
<path fill="#8d4d21" opacity="1.00" d=" M 117.47 130.08 L 117.99 130.13 C 118.02 130.92 118.09 132.49 118.12 133.27 C 118.00 133.65 117.77 134.42 117.65 134.80 C 116.22 134.12 116.55 131.24 117.47 130.08 Z" />
<path fill="#8d4d21" opacity="1.00" d=" M 118.65 133.11 C 118.94 132.86 119.52 132.36 119.81 132.11 C 119.63 132.53 119.27 133.37 119.10 133.79 L 118.65 133.11 Z" />
<path fill="#8d4d21" opacity="1.00" d=" M 402.97 136.87 C 402.73 135.81 402.95 134.86 403.60 134.00 C 404.78 135.40 404.56 136.36 402.97 136.87 Z" />
<path fill="#8d4d21" opacity="1.00" d=" M 300.34 135.16 L 301.10 135.31 C 301.01 135.73 300.84 136.57 300.75 136.99 C 300.65 136.53 300.44 135.62 300.34 135.16 Z" />
<path fill="#8d4d21" opacity="1.00" d=" M 301.13 138.74 C 301.80 138.31 302.40 137.79 302.92 137.17 C 305.02 140.36 300.63 143.90 301.13 138.74 Z" />
<path fill="#8d4d21" opacity="1.00" d=" M 401.96 142.85 C 401.73 141.79 401.96 140.84 402.66 140.01 C 403.79 141.42 403.56 142.37 401.96 142.85 Z" />
<path fill="#8d4d21" opacity="1.00" d=" M 102.96 143.14 C 104.56 143.62 104.79 144.56 103.65 145.97 C 102.95 145.14 102.72 144.20 102.96 143.14 Z" />
<path fill="#8d4d21" opacity="1.00" d=" M 103.97 153.08 C 104.18 153.56 104.59 154.53 104.80 155.02 C 104.59 154.53 104.18 153.56 103.97 153.08 Z" />
<path fill="#8d4d21" opacity="1.00" d=" M 104.97 161.21 C 106.81 161.02 106.79 164.19 105.51 164.93 C 105.00 163.76 104.74 162.48 104.97 161.21 Z" />
<path fill="#8d4d21" opacity="1.00" d=" M 106.95 177.16 C 108.56 177.63 108.80 178.57 107.66 180.00 C 106.97 179.16 106.73 178.21 106.95 177.16 Z" />
<path fill="#8d4d21" opacity="1.00" d=" M 107.99 183.04 C 108.16 183.54 108.49 184.55 108.66 185.06 C 108.49 184.55 108.16 183.54 107.99 183.04 Z" />
<path fill="#8d4d21" opacity="1.00" d=" M 109.96 194.08 C 110.19 194.56 110.63 195.52 110.85 196.00 C 110.63 195.52 110.19 194.56 109.96 194.08 Z" />
<path fill="#8d4d21" opacity="1.00" d=" M 94.06 206.53 C 95.22 206.00 96.51 205.73 97.79 205.97 C 97.96 207.79 94.81 207.79 94.06 206.53 Z" />
<path fill="#8d4d21" opacity="1.00" d=" M 86.00 207.83 C 86.48 207.62 87.44 207.19 87.92 206.97 C 87.44 207.19 86.48 207.62 86.00 207.83 Z" />
<path fill="#8d4d21" opacity="1.00" d=" M 291.50 209.49 C 289.21 228.12 281.84 255.16 276.76 275.93 C 232.28 275.96 187.76 276.21 143.30 275.82 C 138.71 254.45 132.97 233.31 129.02 211.80 C 152.20 249.45 203.31 266.76 244.28 249.35 C 264.22 242.55 280.55 227.14 291.50 209.49 Z" />
<path fill="#8d4d21" opacity="1.00" d=" M 114.28 218.42 C 119.67 232.46 121.02 250.74 126.02 265.99 C 127.00 271.91 131.72 282.30 123.63 284.67 C 105.20 285.13 86.23 288.60 68.20 283.87 C 56.19 265.74 47.86 245.08 42.01 224.15 C 66.09 225.65 90.58 222.75 114.28 218.42 Z" />
<path fill="#8d4d21" opacity="1.00" d=" M 305.25 219.13 C 329.47 221.04 353.81 226.13 378.07 224.13 C 373.49 245.10 363.92 265.38 352.35 283.34 C 335.74 288.61 317.33 285.70 299.97 285.02 C 295.60 285.07 290.21 281.04 292.12 276.08 C 296.81 257.17 301.01 238.15 305.25 219.13 Z" />
</g>
<g id="#996250ff">
<path fill="#996250" opacity="1.00" d=" M 196.90 15.45 C 205.90 14.60 214.99 14.96 224.02 15.07 L 223.98 16.03 C 214.90 16.05 205.83 16.01 196.75 15.95 L 196.90 15.45 Z" />
<path fill="#996250" opacity="1.00" d=" M 173.97 17.29 C 174.45 17.27 175.42 17.24 175.91 17.22 C 175.40 17.43 174.39 17.84 173.88 18.05 L 173.97 17.29 Z" />
<path fill="#996250" opacity="1.00" d=" M 303.91 31.95 C 306.39 35.08 304.96 42.43 304.55 47.35 C 303.74 42.26 304.01 37.08 303.91 31.95 Z" />
<path fill="#996250" opacity="1.00" d=" M 27.05 50.07 C 35.72 44.78 41.08 61.14 39.88 67.86 C 31.95 85.03 43.02 103.46 37.00 121.04 C 35.57 130.99 27.87 138.56 18.09 140.16 C 17.19 137.50 16.92 134.64 17.04 131.85 C 17.26 130.79 17.03 129.85 16.35 129.03 C 15.53 126.05 15.95 122.88 16.06 119.84 C 16.29 118.79 16.06 117.85 15.35 117.03 C 14.83 110.35 14.43 103.49 15.48 96.82 C 15.62 95.43 15.91 92.64 16.06 91.25 C 15.88 88.49 15.92 85.75 16.18 83.01 C 16.39 82.53 16.81 81.55 17.02 81.07 C 17.06 80.30 17.13 78.78 17.17 78.02 C 17.38 77.53 17.81 76.55 18.02 76.07 C 18.06 75.30 18.13 73.78 18.17 73.02 C 18.38 72.53 18.81 71.56 19.03 71.07 C 20.06 63.66 23.78 56.72 27.05 50.07 Z" />
<path fill="#996250" opacity="1.00" d=" M 115.07 55.06 L 116.01 54.95 C 116.04 65.29 115.99 75.63 116.02 85.97 L 115.06 86.04 C 115.02 75.72 114.77 65.38 115.07 55.06 Z" />
<path fill="#996250" opacity="1.00" d=" M 377.49 90.55 C 368.15 76.52 382.56 55.46 398.81 62.02 C 400.71 67.19 402.74 72.53 402.97 78.05 C 403.17 78.54 403.57 79.53 403.76 80.02 C 404.53 86.65 405.06 93.32 405.03 100.01 C 404.95 103.67 404.93 107.35 405.02 111.02 C 405.14 118.69 405.19 126.45 403.60 134.00 C 402.95 134.86 402.73 135.81 402.97 136.87 C 402.89 137.65 402.74 139.22 402.66 140.01 C 401.96 140.84 401.73 141.79 401.96 142.85 C 402.45 145.48 402.16 147.95 401.09 150.26 C 379.42 156.06 367.42 127.62 373.44 110.44 C 374.47 103.61 382.43 97.31 377.49 90.55 Z" />
<path fill="#996250" opacity="1.00" d=" M 199.60 66.64 C 205.76 65.36 212.11 66.10 218.31 66.75 C 212.07 67.02 205.81 67.25 199.60 66.64 Z" />
<path fill="#996250" opacity="1.00" d=" M 303.96 100.03 C 304.05 97.25 304.42 94.49 304.74 91.74 C 304.99 94.46 305.17 97.21 304.94 99.95 L 303.96 100.03 Z" />
<path fill="#996250" opacity="1.00" d=" M 139.91 96.64 C 140.13 95.20 141.21 94.14 142.64 93.91 C 143.48 95.30 141.30 97.48 139.91 96.64 Z" />
<path fill="#996250" opacity="1.00" d=" M 278.42 95.52 C 279.64 96.23 280.75 97.22 281.08 98.66 C 279.49 99.51 277.50 96.98 278.42 95.52 Z" />
<path fill="#996250" opacity="1.00" d=" M 201.31 105.95 C 201.70 104.50 202.59 104.30 203.98 105.35 L 203.93 106.05 C 203.27 106.02 201.96 105.97 201.31 105.95 Z" />
<path fill="#996250" opacity="1.00" d=" M 214.33 105.81 C 214.06 103.99 218.12 104.22 217.74 106.01 C 216.59 106.10 215.45 106.03 214.33 105.81 Z" />
<path fill="#996250" opacity="1.00" d=" M 195.07 107.09 C 195.57 105.48 196.54 105.23 197.97 106.34 C 197.11 107.02 196.15 107.27 195.07 107.09 Z" />
<path fill="#996250" opacity="1.00" d=" M 222.15 106.80 C 222.95 105.36 223.47 105.48 223.73 107.15 C 223.33 107.06 222.55 106.89 222.15 106.80 Z" />
<path fill="#996250" opacity="1.00" d=" M 192.06 108.05 C 192.56 107.83 193.57 107.38 194.07 107.16 C 193.57 107.38 192.56 107.83 192.06 108.05 Z" />
<path fill="#996250" opacity="1.00" d=" M 189.18 109.08 C 189.66 108.84 190.62 108.36 191.10 108.11 C 190.62 108.36 189.66 108.84 189.18 109.08 Z" />
<path fill="#996250" opacity="1.00" d=" M 227.92 108.29 C 228.41 108.48 229.39 108.86 229.88 109.06 C 229.39 108.86 228.41 108.48 227.92 108.29 Z" />
<path fill="#996250" opacity="1.00" d=" M 233.09 110.45 C 234.71 109.00 238.68 110.49 237.81 112.86 C 236.19 112.15 234.61 111.36 233.09 110.45 Z" />
<path fill="#996250" opacity="1.00" d=" M 178.20 115.01 C 176.64 113.64 179.96 111.75 180.08 113.91 C 179.61 114.18 178.67 114.73 178.20 115.01 Z" />
<path fill="#996250" opacity="1.00" d=" M 240.94 114.89 C 241.09 112.72 244.35 114.73 242.76 116.05 C 242.30 115.76 241.39 115.18 240.94 114.89 Z" />
<path fill="#996250" opacity="1.00" d=" M 174.15 118.10 C 173.71 116.33 174.37 115.70 176.14 116.22 C 175.75 117.14 175.08 117.76 174.15 118.10 Z" />
<path fill="#996250" opacity="1.00" d=" M 245.84 118.14 C 249.28 119.42 253.66 122.27 253.84 126.32 C 251.17 123.59 248.51 120.86 245.84 118.14 Z" />
<path fill="#996250" opacity="1.00" d=" M 168.41 122.98 C 167.04 120.98 170.05 118.04 172.03 119.44 C 170.87 120.67 169.66 121.86 168.41 122.98 Z" />
<path fill="#996250" opacity="1.00" d=" M 117.47 126.05 C 118.01 127.34 118.15 128.74 117.99 130.13 L 117.47 130.08 C 116.35 128.71 116.34 127.36 117.47 126.05 Z" />
<path fill="#996250" opacity="1.00" d=" M 164.32 128.20 C 163.71 126.42 164.30 125.74 166.11 126.16 C 165.78 127.07 165.18 127.75 164.32 128.20 Z" />
<path fill="#996250" opacity="1.00" d=" M 254.91 128.16 C 256.67 127.71 257.29 128.36 256.79 130.12 C 255.86 129.75 255.23 129.10 254.91 128.16 Z" />
<path fill="#996250" opacity="1.00" d=" M 118.12 133.27 L 118.65 133.11 L 119.10 133.79 C 120.29 135.68 117.56 137.85 117.65 134.80 C 117.77 134.42 118.00 133.65 118.12 133.27 Z" />
<path fill="#996250" opacity="1.00" d=" M 258.03 132.99 C 259.81 132.74 260.35 133.47 259.64 135.18 C 258.77 134.69 258.23 133.96 258.03 132.99 Z" />
<path fill="#996250" opacity="1.00" d=" M 301.10 135.31 C 301.51 135.05 302.32 134.52 302.72 134.26 C 302.77 134.98 302.87 136.44 302.92 137.17 C 302.40 137.79 301.80 138.31 301.13 138.74 C 301.04 138.30 300.84 137.43 300.75 136.99 C 300.84 136.57 301.01 135.73 301.10 135.31 Z" />
<path fill="#996250" opacity="1.00" d=" M 65.00 168.98 C 59.17 147.81 83.90 123.18 103.04 140.12 C 103.02 140.87 102.98 142.39 102.96 143.14 C 102.72 144.20 102.95 145.14 103.65 145.97 C 103.73 147.75 103.89 151.30 103.97 153.08 C 104.18 153.56 104.59 154.53 104.80 155.02 C 105.15 157.06 105.09 159.15 104.97 161.21 C 104.74 162.48 105.00 163.76 105.51 164.93 C 106.47 168.91 106.94 173.06 106.95 177.16 C 106.73 178.21 106.97 179.16 107.66 180.00 C 107.74 180.76 107.90 182.28 107.99 183.04 C 108.16 183.54 108.49 184.55 108.66 185.06 C 109.25 188.03 109.95 191.03 109.96 194.08 C 110.19 194.56 110.63 195.52 110.85 196.00 C 114.64 205.31 104.14 207.07 97.79 205.97 C 96.51 205.73 95.22 206.00 94.06 206.53 C 92.08 207.19 89.96 207.12 87.92 206.97 C 87.44 207.19 86.48 207.62 86.00 207.83 C 83.35 208.16 80.71 208.18 78.07 207.90 C 71.44 195.89 66.27 182.72 65.00 168.98 Z" />
<path fill="#996250" opacity="1.00" d=" M 261.63 140.41 C 261.96 140.83 262.62 141.67 262.95 142.08 C 262.62 141.67 261.96 140.83 261.63 140.41 Z" />
<path fill="#996250" opacity="1.00" d=" M 156.13 143.12 C 156.36 142.63 156.84 141.66 157.07 141.18 C 156.84 141.66 156.36 142.63 156.13 143.12 Z" />
<path fill="#996250" opacity="1.00" d=" M 262.96 143.06 C 263.18 143.56 263.61 144.57 263.83 145.07 C 263.61 144.57 263.18 143.56 262.96 143.06 Z" />
<path fill="#996250" opacity="1.00" d=" M 155.26 147.09 C 154.20 145.60 154.47 144.61 156.07 144.12 C 156.21 145.22 155.94 146.21 155.26 147.09 Z" />
<path fill="#996250" opacity="1.00" d=" M 263.91 146.08 C 265.51 146.59 265.77 147.56 264.68 149.01 C 263.99 148.14 263.73 147.17 263.91 146.08 Z" />
<path fill="#996250" opacity="1.00" d=" M 154.33 149.95 C 153.27 148.48 153.58 147.52 155.26 147.09 C 155.34 148.17 155.02 149.13 154.33 149.95 Z" />
<path fill="#996250" opacity="1.00" d=" M 265.14 151.08 C 265.24 151.60 265.44 152.64 265.54 153.16 L 264.98 152.70 C 265.02 152.29 265.10 151.49 265.14 151.08 Z" />
<path fill="#996250" opacity="1.00" d=" M 153.57 158.00 C 152.42 156.90 152.06 153.54 153.93 153.24 C 154.01 154.82 154.02 156.40 153.95 157.99 L 153.57 158.00 Z" />
<path fill="#996250" opacity="1.00" d=" M 266.04 156.99 C 267.32 157.27 268.61 167.60 266.03 168.02 C 265.98 164.35 266.00 160.66 266.04 156.99 Z" />
<path fill="#996250" opacity="1.00" d=" M 153.57 165.00 L 153.95 165.01 C 154.02 166.59 154.01 168.17 153.93 169.75 C 152.06 169.46 152.42 166.10 153.57 165.00 Z" />
<path fill="#996250" opacity="1.00" d=" M 264.96 173.95 C 265.17 173.46 265.59 172.48 265.81 171.99 C 265.59 172.48 265.17 173.46 264.96 173.95 Z" />
<path fill="#996250" opacity="1.00" d=" M 154.17 173.00 C 154.39 173.49 154.82 174.46 155.04 174.95 C 154.82 174.46 154.39 173.49 154.17 173.00 Z" />
<path fill="#996250" opacity="1.00" d=" M 263.98 177.92 C 264.20 177.43 264.63 176.45 264.84 175.96 C 264.63 176.45 264.20 177.43 263.98 177.92 Z" />
<path fill="#996250" opacity="1.00" d=" M 155.16 177.00 C 155.39 177.49 155.84 178.48 156.07 178.97 C 155.84 178.48 155.39 177.49 155.16 177.00 Z" />
<path fill="#996250" opacity="1.00" d=" M 156.14 179.92 C 156.36 180.41 156.81 181.39 157.04 181.87 C 156.81 181.39 156.36 180.41 156.14 179.92 Z" />
<path fill="#996250" opacity="1.00" d=" M 258.07 191.12 C 258.27 190.11 258.84 189.37 259.77 188.91 C 260.39 190.60 259.82 191.34 258.07 191.12 Z" />
<path fill="#996250" opacity="1.00" d=" M 161.14 190.75 C 162.51 192.48 163.79 194.28 164.98 196.13 C 162.19 196.12 161.24 193.05 161.14 190.75 Z" />
<path fill="#996250" opacity="1.00" d=" M 256.04 194.12 C 256.29 193.11 256.87 192.36 257.80 191.87 C 258.38 193.57 257.80 194.33 256.04 194.12 Z" />
<path fill="#996250" opacity="1.00" d=" M 253.12 197.86 C 253.79 196.71 254.68 195.72 255.68 194.86 C 257.07 196.32 254.77 199.13 253.12 197.86 Z" />
<path fill="#996250" opacity="1.00" d=" M 166.16 197.73 C 168.47 200.14 170.80 202.52 173.15 204.91 C 170.07 203.86 166.02 201.42 166.16 197.73 Z" />
<path fill="#996250" opacity="1.00" d=" M 242.87 207.69 C 243.72 206.67 244.69 205.77 245.86 205.13 C 247.11 206.77 244.33 209.06 242.87 207.69 Z" />
<path fill="#996250" opacity="1.00" d=" M 174.99 206.06 C 175.97 206.29 176.67 206.86 177.12 207.77 C 175.40 208.40 174.69 207.82 174.99 206.06 Z" />
<path fill="#996250" opacity="1.00" d=" M 239.91 209.76 C 240.39 208.84 241.14 208.26 242.14 208.02 C 242.35 209.79 241.61 210.37 239.91 209.76 Z" />
<path fill="#996250" opacity="1.00" d=" M 180.94 210.17 C 181.96 210.30 182.73 210.83 183.23 211.76 C 181.55 212.43 180.78 211.90 180.94 210.17 Z" />
<path fill="#996250" opacity="1.00" d=" M 184.11 211.98 C 185.52 212.14 186.80 212.78 187.91 213.65 C 186.73 214.98 183.51 213.87 184.11 211.98 Z" />
<path fill="#996250" opacity="1.00" d=" M 195.06 215.97 C 195.55 216.19 196.52 216.61 197.01 216.83 C 196.52 216.61 195.55 216.19 195.06 215.97 Z" />
<path fill="#996250" opacity="1.00" d=" M 222.96 216.85 C 223.45 216.63 224.43 216.20 224.92 215.98 C 224.43 216.20 223.45 216.63 222.96 216.85 Z" />
<path fill="#996250" opacity="1.00" d=" M 200.27 217.05 C 200.69 217.03 201.52 216.97 201.94 216.94 L 202.02 217.76 C 201.58 217.59 200.71 217.23 200.27 217.05 Z" />
<path fill="#996250" opacity="1.00" d=" M 216.16 217.59 C 217.05 217.28 217.94 216.98 218.84 216.68 C 219.29 216.76 220.19 216.93 220.64 217.01 C 220.70 218.92 217.21 218.58 216.16 217.59 Z" />
</g>
<g id="#c17722ff">
<path fill="#c17722" opacity="1.00" d=" M 183.82 16.48 C 185.95 16.12 188.11 15.89 190.28 15.90 C 191.90 15.91 195.13 15.93 196.75 15.95 C 205.83 16.01 214.90 16.05 223.98 16.03 C 226.65 16.04 229.33 16.02 232.01 15.97 C 234.04 15.95 236.10 15.97 238.08 16.51 C 239.59 17.00 241.18 17.16 242.77 17.02 C 244.32 16.94 245.81 17.40 247.29 17.81 C 247.90 17.86 249.13 17.97 249.75 18.03 C 251.22 17.87 252.65 18.02 254.06 18.46 C 255.22 18.99 256.49 19.18 257.77 19.08 C 258.94 19.16 260.09 19.40 261.21 19.79 C 261.62 19.85 262.45 19.98 262.86 20.05 C 263.39 20.12 264.45 20.25 264.98 20.32 C 265.81 21.00 266.76 21.26 267.83 21.08 C 268.98 21.17 270.10 21.41 271.20 21.80 C 271.61 21.86 272.44 21.98 272.85 22.04 C 273.38 22.07 274.44 22.14 274.97 22.17 C 275.46 22.39 276.45 22.82 276.94 23.04 C 277.45 23.06 278.46 23.12 278.96 23.14 C 279.44 23.37 280.41 23.84 280.89 24.07 C 283.95 24.64 286.92 25.66 289.95 26.40 C 290.47 26.56 291.50 26.89 292.01 27.06 L 292.96 27.15 C 293.45 27.38 294.45 27.83 294.94 28.06 L 295.90 28.11 C 296.38 28.35 297.34 28.83 297.82 29.07 C 298.92 29.33 299.96 29.74 300.95 30.30 C 301.44 30.48 302.44 30.86 302.93 31.04 C 303.18 31.27 303.66 31.72 303.91 31.95 C 304.01 37.08 303.74 42.26 304.55 47.35 C 304.83 49.89 304.99 52.44 305.03 55.00 C 304.99 65.34 304.92 75.68 305.03 86.02 C 305.04 87.93 304.94 89.84 304.74 91.74 C 304.42 94.49 304.05 97.25 303.96 100.03 C 303.91 104.02 303.92 108.02 304.00 112.01 C 304.02 114.59 303.93 117.17 303.73 119.75 C 303.34 123.15 302.97 126.58 302.98 130.02 C 302.98 131.44 302.89 132.85 302.72 134.26 C 302.32 134.52 301.51 135.05 301.10 135.31 L 300.34 135.16 C 299.06 131.83 297.65 128.48 297.05 124.95 C 296.88 124.45 296.54 123.45 296.37 122.95 L 296.14 122.14 C 294.07 115.33 290.35 108.65 285.19 103.69 C 283.62 102.20 281.82 100.76 281.08 98.66 C 280.75 97.22 279.64 96.23 278.42 95.52 C 277.55 93.87 276.29 92.39 274.39 91.98 C 272.65 91.41 271.24 90.13 270.32 88.58 C 269.96 87.55 269.25 86.98 268.18 86.89 C 266.90 86.68 265.97 85.66 265.12 84.78 C 264.67 83.88 263.97 83.30 263.02 83.03 C 262.62 82.70 261.82 82.04 261.42 81.71 C 259.76 79.67 257.39 78.52 254.85 78.01 C 253.15 77.50 251.33 77.03 250.04 75.74 C 249.54 75.55 248.55 75.18 248.05 74.99 C 246.80 75.17 245.79 74.75 245.03 73.73 C 244.54 73.54 243.54 73.17 243.05 72.98 C 241.58 73.16 239.90 73.14 239.02 71.74 C 238.52 71.54 237.53 71.15 237.03 70.96 C 236.53 70.93 235.53 70.88 235.03 70.85 C 234.54 70.63 233.55 70.18 233.06 69.96 C 232.56 69.93 231.55 69.87 231.04 69.84 C 230.55 69.63 229.57 69.20 229.08 68.98 C 228.31 68.94 226.77 68.87 226.00 68.83 C 225.52 68.62 224.54 68.18 224.05 67.96 C 223.55 67.93 222.54 67.89 222.03 67.86 C 221.56 67.62 220.61 67.12 220.13 66.88 C 219.67 66.84 218.76 66.78 218.31 66.75 C 212.11 66.10 205.76 65.36 199.60 66.64 L 198.78 66.76 C 198.33 67.05 197.42 67.62 196.97 67.90 C 196.47 67.92 195.45 67.94 194.95 67.96 C 194.46 68.18 193.48 68.61 193.00 68.83 C 192.23 68.87 190.69 68.94 189.92 68.98 C 189.43 69.20 188.45 69.63 187.96 69.84 C 187.45 69.87 186.44 69.93 185.94 69.96 C 185.45 70.18 184.46 70.63 183.97 70.85 C 183.47 70.88 182.47 70.93 181.97 70.96 C 181.47 71.16 180.48 71.56 179.99 71.75 C 177.22 73.53 173.92 74.41 170.70 74.89 C 169.24 74.85 167.91 75.46 166.98 76.57 C 166.11 77.51 165.03 78.01 163.73 78.07 C 162.03 78.13 160.65 79.16 159.60 80.41 L 158.78 80.80 C 157.24 81.29 155.65 81.94 154.81 83.41 C 153.36 85.07 152.04 87.23 149.82 87.88 C 148.75 87.98 148.03 88.55 147.67 89.57 C 146.40 91.39 144.81 93.20 142.64 93.91 C 141.21 94.14 140.13 95.20 139.91 96.64 C 139.39 98.37 138.10 99.72 136.75 100.86 C 135.84 101.32 135.28 102.04 135.06 103.03 C 134.72 103.50 134.03 104.46 133.68 104.93 C 132.53 105.56 131.37 106.32 130.95 107.64 L 130.58 108.32 C 127.26 112.77 123.72 117.47 122.98 123.13 C 122.88 124.22 122.47 125.17 121.74 125.97 C 121.55 126.47 121.17 127.45 120.99 127.95 C 121.22 129.44 121.01 131.06 119.81 132.11 C 119.52 132.36 118.94 132.86 118.65 133.11 L 118.12 133.27 C 118.09 132.49 118.02 130.92 117.99 130.13 C 118.15 128.74 118.01 127.34 117.47 126.05 C 117.15 124.72 116.99 123.36 116.99 121.99 C 116.87 117.87 116.70 113.76 116.38 109.66 C 116.12 106.11 115.91 102.56 115.98 98.99 C 116.03 94.65 116.06 90.31 116.02 85.97 C 115.99 75.63 116.04 65.29 116.01 54.95 C 117.94 47.57 112.24 36.92 118.10 31.05 C 120.08 30.32 122.08 29.62 124.15 29.15 C 124.63 28.94 125.59 28.50 126.08 28.28 C 127.40 27.80 128.75 27.38 130.14 27.15 C 130.62 26.93 131.59 26.51 132.07 26.30 C 133.75 25.82 135.47 25.44 137.21 25.21 C 137.66 24.93 138.57 24.38 139.03 24.11 C 139.54 24.09 140.56 24.05 141.06 24.04 C 141.55 23.82 142.54 23.38 143.03 23.16 C 143.54 23.13 144.55 23.07 145.06 23.04 C 145.55 22.82 146.54 22.37 147.03 22.15 C 147.54 22.12 148.55 22.07 149.06 22.04 C 149.56 21.82 150.54 21.37 151.03 21.15 C 151.55 21.13 152.60 21.08 153.13 21.06 C 154.20 21.26 155.17 21.01 156.02 20.32 C 156.54 20.25 157.58 20.12 158.10 20.06 C 159.17 20.26 160.13 20.02 160.99 19.34 C 161.79 19.26 163.39 19.10 164.19 19.02 C 165.47 19.20 166.77 19.01 167.95 18.46 C 168.79 18.33 170.47 18.07 171.31 17.94 C 171.96 17.97 173.24 18.02 173.88 18.05 C 174.39 17.84 175.40 17.43 175.91 17.22 C 176.48 17.18 177.62 17.10 178.18 17.06 C 179.59 16.91 182.41 16.63 183.82 16.48 Z" />
</g>
<g id="#fc6be5ff">
<path fill="#fc6be5" opacity="1.00" d=" M 203.98 105.35 C 204.71 105.35 206.18 105.35 206.92 105.36 C 206.02 106.01 205.02 106.24 203.93 106.05 L 203.98 105.35 Z" />
<path fill="#fc6be5" opacity="1.00" d=" M 189.70 131.66 C 213.02 108.74 255.10 122.97 264.98 152.70 L 265.54 153.16 C 265.95 154.39 266.12 155.67 266.04 156.99 C 266.00 160.66 265.98 164.35 266.03 168.02 C 266.05 169.35 265.98 170.67 265.81 171.99 C 265.59 172.48 265.17 173.46 264.96 173.95 C 264.93 174.46 264.87 175.46 264.84 175.96 C 264.63 176.45 264.20 177.43 263.98 177.92 C 263.66 181.83 261.84 185.62 259.77 188.91 C 258.84 189.37 258.27 190.11 258.07 191.12 L 257.80 191.87 C 256.87 192.36 256.29 193.11 256.04 194.12 L 255.68 194.86 C 254.68 195.72 253.79 196.71 253.12 197.86 C 251.07 200.60 248.77 203.28 245.86 205.13 C 244.69 205.77 243.72 206.67 242.87 207.69 L 242.14 208.02 C 241.14 208.26 240.39 208.84 239.91 209.76 C 235.42 212.61 230.33 215.55 224.92 215.98 C 224.43 216.20 223.45 216.63 222.96 216.85 C 222.38 216.89 221.22 216.97 220.64 217.01 C 220.19 216.93 219.29 216.76 218.84 216.68 C 245.39 207.50 259.87 169.67 236.30 149.66 C 228.90 141.66 213.65 142.35 209.36 153.33 C 203.78 163.88 219.72 171.50 215.38 182.30 C 212.30 191.40 200.74 194.33 192.55 190.53 C 169.75 180.36 171.74 145.90 189.70 131.66 Z" />
<path fill="#fc6be5" opacity="1.00" d=" M 153.57 158.00 L 153.95 157.99 C 153.95 159.74 153.95 163.26 153.95 165.01 L 153.57 165.00 C 152.36 162.95 152.36 160.05 153.57 158.00 Z" />
<path fill="#fc6be5" opacity="1.00" d=" M 201.94 216.94 C 202.42 217.17 203.39 217.63 203.87 217.85 C 203.40 217.83 202.48 217.79 202.02 217.76 L 201.94 216.94 Z" />
</g>
<g id="#fee7f8ff">
<path fill="#fee7f8" opacity="1.00" d=" M 206.92 105.36 C 209.36 105.08 211.83 105.23 214.33 105.81 C 215.45 106.03 216.59 106.10 217.74 106.01 C 219.25 105.92 220.73 106.30 222.15 106.80 C 222.55 106.89 223.33 107.06 223.73 107.15 C 225.15 107.39 226.55 107.79 227.92 108.29 C 228.41 108.48 229.39 108.86 229.88 109.06 C 231.00 109.40 232.07 109.86 233.09 110.45 C 234.61 111.36 236.19 112.15 237.81 112.86 C 238.91 113.43 239.93 114.16 240.94 114.89 C 241.39 115.18 242.30 115.76 242.76 116.05 C 243.83 116.66 244.89 117.33 245.84 118.14 C 248.51 120.86 251.17 123.59 253.84 126.32 C 254.11 126.78 254.64 127.70 254.91 128.16 C 255.23 129.10 255.86 129.75 256.79 130.12 C 257.28 131.04 257.69 132.00 258.03 132.99 C 258.23 133.96 258.77 134.69 259.64 135.18 C 260.38 136.89 261.06 138.63 261.63 140.41 C 261.96 140.83 262.62 141.67 262.95 142.08 L 262.96 143.06 C 263.18 143.56 263.61 144.57 263.83 145.07 L 263.91 146.08 C 263.73 147.17 263.99 148.14 264.68 149.01 C 264.80 149.53 265.02 150.56 265.14 151.08 C 265.10 151.49 265.02 152.29 264.98 152.70 C 255.10 122.97 213.02 108.74 189.70 131.66 C 171.74 145.90 169.75 180.36 192.55 190.53 C 200.74 194.33 212.30 191.40 215.38 182.30 C 219.72 171.50 203.78 163.88 209.36 153.33 C 213.65 142.35 228.90 141.66 236.30 149.66 C 259.87 169.67 245.39 207.50 218.84 216.68 C 217.94 216.98 217.05 217.28 216.16 217.59 C 212.08 218.14 207.98 218.23 203.87 217.85 C 203.39 217.63 202.42 217.17 201.94 216.94 C 201.52 216.97 200.69 217.03 200.27 217.05 C 199.45 217.00 197.82 216.88 197.01 216.83 C 196.52 216.61 195.55 216.19 195.06 215.97 C 192.50 216.13 189.99 215.09 187.91 213.65 C 186.80 212.78 185.52 212.14 184.11 211.98 L 183.23 211.76 C 182.73 210.83 181.96 210.30 180.94 210.17 C 179.36 209.99 178.12 208.93 177.12 207.77 C 176.67 206.86 175.97 206.29 174.99 206.06 C 174.53 205.77 173.61 205.19 173.15 204.91 C 170.80 202.52 168.47 200.14 166.16 197.73 C 165.86 197.33 165.28 196.53 164.98 196.13 C 163.79 194.28 162.51 192.48 161.14 190.75 C 159.26 188.10 157.59 185.07 157.04 181.87 C 156.81 181.39 156.36 180.41 156.14 179.92 L 156.07 178.97 C 155.84 178.48 155.39 177.49 155.16 177.00 C 155.13 176.48 155.07 175.46 155.04 174.95 C 154.82 174.46 154.39 173.49 154.17 173.00 C 154.11 172.19 153.99 170.56 153.93 169.75 C 154.01 168.17 154.02 166.59 153.95 165.01 C 153.95 163.26 153.95 159.74 153.95 157.99 C 154.02 156.40 154.01 154.82 153.93 153.24 C 154.03 152.42 154.23 150.77 154.33 149.95 C 155.02 149.13 155.34 148.17 155.26 147.09 C 155.94 146.21 156.21 145.22 156.07 144.12 L 156.13 143.12 C 156.36 142.63 156.84 141.66 157.07 141.18 C 158.87 136.56 161.72 132.41 164.32 128.20 C 165.18 127.75 165.78 127.07 166.11 126.16 C 166.74 125.01 167.49 123.92 168.41 122.98 C 169.66 121.86 170.87 120.67 172.03 119.44 C 172.56 119.11 173.62 118.44 174.15 118.10 C 175.08 117.76 175.75 117.14 176.14 116.22 C 176.66 115.92 177.69 115.31 178.20 115.01 C 178.67 114.73 179.61 114.18 180.08 113.91 C 182.99 112.11 185.92 110.19 189.18 109.08 C 189.66 108.84 190.62 108.36 191.10 108.11 L 192.06 108.05 C 192.56 107.83 193.57 107.38 194.07 107.16 L 195.07 107.09 C 196.15 107.27 197.11 107.02 197.97 106.34 C 198.81 106.24 200.47 106.05 201.31 105.95 C 201.96 105.97 203.27 106.02 203.93 106.05 C 205.02 106.24 206.02 106.01 206.92 105.36 Z" />
</g>
</svg>
