<?xml version="1.0" encoding="UTF-8" ?>
<!DOCTYPE svg PUBLIC "-//W3C//DTD SVG 1.1//EN" "http://www.w3.org/Graphics/SVG/1.1/DTD/svg11.dtd">
<svg width="476pt" height="342pt" viewBox="0 0 476 342" version="1.1" xmlns="http://www.w3.org/2000/svg">
<g id="#000000ff">
<path fill="#000000" opacity="1.00" d=" M 199.03 6.00 C 224.35 -1.85 252.26 -1.85 277.44 6.57 C 282.89 8.53 288.32 11.50 291.55 16.48 C 295.26 21.44 295.83 27.78 297.23 33.61 C 312.67 36.77 327.91 40.97 342.71 46.39 C 347.20 37.77 356.24 33.08 365.12 30.20 C 389.24 22.07 414.50 17.05 439.96 16.04 C 448.74 15.80 458.56 16.48 465.37 22.73 C 472.42 28.69 473.89 38.38 475.06 47.00 C 477.66 81.44 473.96 115.99 468.96 150.05 C 462.10 193.67 452.16 236.91 437.46 278.59 C 432.25 292.90 426.70 307.11 419.81 320.70 C 416.74 327.48 411.76 333.48 405.36 337.35 C 396.67 341.98 386.54 341.61 376.99 341.89 C 364.41 341.83 351.67 342.23 339.28 339.70 C 330.24 338.23 322.55 330.87 320.43 322.01 C 265.51 321.98 210.60 321.96 155.68 322.02 C 154.10 329.39 148.55 335.60 141.67 338.48 C 131.12 341.67 119.96 341.67 109.03 341.90 C 98.96 341.77 88.74 342.32 78.82 340.28 C 69.00 338.40 61.24 330.75 57.03 321.98 C 46.04 300.10 37.85 276.94 30.54 253.62 C 16.38 206.10 6.72 157.20 2.12 107.82 C 0.43 87.23 -0.70 66.46 1.35 45.84 C 2.50 37.39 4.31 27.93 11.39 22.32 C 19.23 15.54 30.31 15.75 40.06 16.18 C 64.93 17.71 89.61 22.70 113.13 30.93 C 121.34 33.61 129.03 38.51 133.55 46.05 C 147.96 40.88 162.75 36.86 177.72 33.64 C 178.82 27.48 179.94 20.98 183.85 15.88 C 187.42 10.76 193.32 8.01 199.03 6.00 M 198.40 22.57 C 193.71 25.23 193.06 31.23 192.69 36.08 C 191.94 59.71 194.61 83.26 196.68 106.77 C 206.69 102.53 217.32 99.99 228.02 98.19 C 245.17 96.01 262.32 100.33 278.36 106.12 C 280.39 82.81 283.04 59.46 282.28 36.03 C 281.88 31.37 281.34 25.71 277.07 22.88 C 273.63 20.83 269.79 19.51 265.94 18.44 C 252.59 15.12 238.66 14.72 224.99 15.78 C 215.89 16.75 206.55 18.15 198.40 22.57 M 17.50 39.56 L 17.16 39.35 C 14.60 52.40 15.17 65.75 15.13 78.97 C 15.98 100.07 17.65 121.20 21.04 142.05 C 27.64 185.79 37.17 229.22 51.91 270.98 C 57.46 286.60 63.61 302.04 71.21 316.79 C 73.86 321.96 78.94 326.05 84.92 326.24 C 100.55 327.25 116.32 327.36 131.89 325.55 C 136.35 325.48 140.63 322.31 141.54 317.87 C 142.46 313.98 140.65 310.27 139.67 306.60 C 136.42 294.89 134.07 282.96 131.96 271.01 C 124.37 228.07 121.33 184.47 119.95 140.94 C 119.95 132.31 119.31 123.69 119.44 115.05 C 118.43 101.20 120.24 87.36 120.78 73.52 C 120.90 67.99 122.27 62.53 121.83 56.99 C 120.62 51.62 115.89 47.87 110.90 46.07 C 93.95 39.35 76.00 35.34 57.97 32.88 C 47.36 31.75 36.66 30.33 25.99 31.37 C 21.70 32.00 18.67 35.57 17.50 39.56 M 365.15 46.14 C 359.05 48.26 353.16 54.05 354.31 61.00 C 355.05 67.00 355.40 73.03 355.78 79.06 C 356.39 91.03 357.66 103.00 356.83 114.98 C 357.06 123.65 356.19 132.29 356.24 140.96 C 355.09 181.12 352.27 221.30 345.98 261.00 C 343.12 278.20 340.03 295.43 334.94 312.13 C 332.97 317.53 336.42 324.24 342.19 325.22 C 354.36 327.12 366.73 326.94 379.02 326.85 C 383.94 326.71 388.90 326.70 393.78 325.88 C 399.00 324.99 402.93 320.81 405.30 316.30 C 411.21 304.77 416.21 292.79 420.78 280.68 C 437.45 235.93 448.37 189.16 455.02 141.92 L 455.37 141.98 C 458.77 117.46 461.38 92.75 460.98 67.97 C 460.97 58.43 461.18 48.73 458.94 39.39 C 457.61 37.03 456.56 34.26 454.06 32.89 C 449.56 30.12 443.97 31.30 438.96 31.06 C 413.82 32.38 388.65 36.93 365.15 46.14 M 137.16 60.72 C 133.50 87.66 133.53 114.93 135.03 142.03 C 135.93 170.06 137.56 198.08 140.55 225.97 C 143.21 225.99 145.86 225.99 148.51 226.01 C 145.46 215.60 142.57 204.92 142.64 193.99 C 142.35 181.22 145.70 168.71 149.69 156.69 C 150.90 152.62 153.22 149.04 155.59 145.56 C 162.17 133.78 171.48 123.48 182.56 115.78 C 180.46 93.47 177.96 71.15 177.60 48.73 C 163.87 51.81 150.29 55.64 137.16 60.72 M 297.37 48.65 C 297.03 70.82 294.60 92.91 292.46 114.96 C 298.76 119.78 305.56 124.24 310.16 130.86 C 316.53 138.15 321.62 146.43 325.91 155.08 C 330.02 167.30 333.61 180.01 333.43 193.02 C 333.58 204.26 330.95 215.37 327.48 225.99 C 330.20 225.99 332.92 225.99 335.64 225.99 C 340.03 186.14 341.32 146.03 342.31 105.99 C 341.86 90.98 341.09 75.95 339.18 61.05 C 325.60 55.80 311.57 51.79 297.37 48.65 M 225.67 113.98 C 207.43 116.76 190.29 126.13 178.10 139.97 C 165.32 154.41 157.68 173.64 158.22 193.01 C 157.39 221.75 174.39 249.80 199.59 263.33 C 211.04 269.68 224.04 272.79 237.04 273.49 C 256.89 273.20 276.88 266.14 291.59 252.61 C 305.86 239.93 315.24 221.90 317.48 202.96 C 318.05 192.92 318.31 182.63 315.53 172.87 C 313.00 163.28 308.75 154.15 302.95 146.12 C 285.85 122.12 254.75 108.99 225.67 113.98 M 142.36 241.00 C 145.60 263.18 148.71 285.51 155.25 307.00 C 210.49 306.99 265.74 306.99 320.99 307.00 C 327.52 285.51 330.68 263.18 333.85 241.00 C 329.56 241.00 325.27 241.00 320.99 240.99 C 316.06 247.98 311.10 255.00 305.15 261.17 C 300.88 264.96 296.48 268.65 291.63 271.69 C 286.74 274.78 282.09 278.38 276.64 280.46 C 260.68 286.53 243.35 290.26 226.26 287.71 C 215.67 285.82 205.07 283.28 195.34 278.61 C 187.28 273.95 179.62 268.57 172.46 262.62 C 168.40 259.29 165.59 254.78 162.22 250.81 C 159.65 247.83 157.48 244.54 155.71 241.03 C 151.26 240.99 146.81 240.99 142.36 241.00 Z" />
</g>
<g id="#8544c3ff">
<path fill="#8544c3" opacity="1.00" d=" M 198.40 22.57 C 206.55 18.15 215.89 16.75 224.99 15.78 C 238.66 14.72 252.59 15.12 265.94 18.44 C 269.79 19.51 273.63 20.83 277.07 22.88 C 281.34 25.71 281.88 31.37 282.28 36.03 C 283.04 59.46 280.39 82.81 278.36 106.12 C 262.32 100.33 245.17 96.01 228.02 98.19 C 217.32 99.99 206.69 102.53 196.68 106.77 C 194.61 83.26 191.94 59.71 192.69 36.08 C 193.06 31.23 193.71 25.23 198.40 22.57 Z" />
<path fill="#8544c3" opacity="1.00" d=" M 17.50 39.56 C 18.67 35.57 21.70 32.00 25.99 31.37 C 36.66 30.33 47.36 31.75 57.97 32.88 C 76.00 35.34 93.95 39.35 110.90 46.07 C 115.89 47.87 120.62 51.62 121.83 56.99 C 122.27 62.53 120.90 67.99 120.78 73.52 C 84.46 70.25 47.95 60.15 17.50 39.56 Z" />
<path fill="#8544c3" opacity="1.00" d=" M 365.15 46.14 C 388.65 36.93 413.82 32.38 438.96 31.06 C 443.97 31.30 449.56 30.12 454.06 32.89 C 456.56 34.26 457.61 37.03 458.94 39.39 C 428.49 60.19 391.86 70.10 355.49 73.61 C 355.57 75.43 355.66 77.25 355.78 79.06 C 355.40 73.03 355.05 67.00 354.31 61.00 C 353.16 54.05 359.05 48.26 365.15 46.14 Z" />
<path fill="#8544c3" opacity="1.00" d=" M 225.67 113.98 C 254.75 108.99 285.85 122.12 302.95 146.12 C 308.75 154.15 313.00 163.28 315.53 172.87 C 318.31 182.63 318.05 192.92 317.48 202.96 C 315.24 221.90 305.86 239.93 291.59 252.61 C 276.88 266.14 256.89 273.20 237.04 273.49 C 224.04 272.79 211.04 269.68 199.59 263.33 C 174.39 249.80 157.39 221.75 158.22 193.01 C 157.68 173.64 165.32 154.41 178.10 139.97 C 190.29 126.13 207.43 116.76 225.67 113.98 M 219.89 139.70 C 206.52 144.18 195.04 153.94 188.39 166.36 C 181.41 179.26 179.82 194.94 183.97 209.00 C 187.34 220.47 194.43 230.86 204.01 238.04 C 215.51 246.79 230.48 250.92 244.82 249.03 C 269.74 247.14 291.30 225.56 294.27 200.93 C 296.78 180.04 287.41 157.93 269.63 146.32 C 255.29 136.50 236.30 134.02 219.89 139.70 Z" />
<path fill="#8544c3" opacity="1.00" d=" M 21.04 142.05 C 53.61 136.09 87.24 135.92 119.95 140.94 C 121.33 184.47 124.37 228.07 131.96 271.01 C 134.07 282.96 136.42 294.89 139.67 306.60 C 140.65 310.27 142.46 313.98 141.54 317.87 C 140.63 322.31 136.35 325.48 131.89 325.55 C 116.32 327.36 100.55 327.25 84.92 326.24 C 78.94 326.05 73.86 321.96 71.21 316.79 C 63.61 302.04 57.46 286.60 51.91 270.98 C 37.17 229.22 27.64 185.79 21.04 142.05 Z" />
<path fill="#8544c3" opacity="1.00" d=" M 356.24 140.96 C 388.91 135.84 422.45 136.22 455.02 141.92 C 448.37 189.16 437.45 235.93 420.78 280.68 C 416.21 292.79 411.21 304.77 405.30 316.30 C 402.93 320.81 399.00 324.99 393.78 325.88 C 388.90 326.70 383.94 326.71 379.02 326.85 C 366.73 326.94 354.36 327.12 342.19 325.22 C 336.42 324.24 332.97 317.53 334.94 312.13 C 340.03 295.43 343.12 278.20 345.98 261.00 C 352.27 221.30 355.09 181.12 356.24 140.96 Z" />
</g>
<g id="#e19be0ff">
<path fill="#e19be0" opacity="1.00" d=" M 17.16 39.35 L 17.50 39.56 C 47.95 60.15 84.46 70.25 120.78 73.52 C 120.24 87.36 118.43 101.20 119.44 115.05 C 119.31 123.69 119.95 132.31 119.95 140.94 C 87.24 135.92 53.61 136.09 21.04 142.05 C 17.65 121.20 15.98 100.07 15.13 78.97 C 15.17 65.75 14.60 52.40 17.16 39.35 Z" />
<path fill="#e19be0" opacity="1.00" d=" M 355.49 73.61 C 391.86 70.10 428.49 60.19 458.94 39.39 C 461.18 48.73 460.97 58.43 460.98 67.97 C 461.38 92.75 458.77 117.46 455.37 141.98 L 455.02 141.92 C 422.45 136.22 388.91 135.84 356.24 140.96 C 356.19 132.29 357.06 123.65 356.83 114.98 C 357.66 103.00 356.39 91.03 355.78 79.06 C 355.66 77.25 355.57 75.43 355.49 73.61 Z" />
</g>
<g id="#e95da9ff">
<path fill="#e95da9" opacity="1.00" d=" M 137.16 60.72 C 150.29 55.64 163.87 51.81 177.60 48.73 C 177.96 71.15 180.46 93.47 182.56 115.78 C 171.48 123.48 162.17 133.78 155.59 145.56 C 153.22 149.04 150.90 152.62 149.69 156.69 C 145.70 168.71 142.35 181.22 142.64 193.99 C 142.57 204.92 145.46 215.60 148.51 226.01 C 145.86 225.99 143.21 225.99 140.55 225.97 C 137.56 198.08 135.93 170.06 135.03 142.03 C 133.53 114.93 133.50 87.66 137.16 60.72 Z" />
<path fill="#e95da9" opacity="1.00" d=" M 297.37 48.65 C 311.57 51.79 325.60 55.80 339.18 61.05 C 341.09 75.95 341.86 90.98 342.31 105.99 C 341.32 146.03 340.03 186.14 335.64 225.99 C 332.92 225.99 330.20 225.99 327.48 225.99 C 330.95 215.37 333.58 204.26 333.43 193.02 C 333.61 180.01 330.02 167.30 325.91 155.08 C 321.62 146.43 316.53 138.15 310.16 130.86 C 305.56 124.24 298.76 119.78 292.46 114.96 C 294.60 92.91 297.03 70.82 297.37 48.65 Z" />
</g>
<g id="#fee9f9ff">
<path fill="#fee9f9" opacity="1.00" d=" M 219.89 139.70 C 236.30 134.02 255.29 136.50 269.63 146.32 C 287.41 157.93 296.78 180.04 294.27 200.93 C 295.39 190.58 292.52 180.02 286.29 171.69 C 277.53 159.58 262.90 152.03 247.98 151.76 C 233.25 151.38 218.60 159.18 210.66 171.57 C 205.19 180.55 202.36 191.60 204.91 201.99 C 206.79 209.08 210.54 216.18 217.02 220.05 C 223.16 223.99 231.63 224.86 238.02 221.02 C 242.69 217.96 245.68 211.85 243.94 206.34 C 241.96 200.69 236.96 196.22 236.65 189.98 C 236.44 183.04 242.30 176.95 249.01 176.00 C 256.71 174.74 264.32 179.06 268.78 185.15 C 274.35 192.77 277.86 202.30 276.51 211.84 C 274.47 229.13 260.78 243.24 244.82 249.03 C 230.48 250.92 215.51 246.79 204.01 238.04 C 194.43 230.86 187.34 220.47 183.97 209.00 C 179.82 194.94 181.41 179.26 188.39 166.36 C 195.04 153.94 206.52 144.18 219.89 139.70 Z" />
</g>
<g id="#ff67e7ff">
<path fill="#ff67e7" opacity="1.00" d=" M 210.66 171.57 C 218.60 159.18 233.25 151.38 247.98 151.76 C 262.90 152.03 277.53 159.58 286.29 171.69 C 292.52 180.02 295.39 190.58 294.27 200.93 C 291.30 225.56 269.74 247.14 244.82 249.03 C 260.78 243.24 274.47 229.13 276.51 211.84 C 277.86 202.30 274.35 192.77 268.78 185.15 C 264.32 179.06 256.71 174.74 249.01 176.00 C 242.30 176.95 236.44 183.04 236.65 189.98 C 236.96 196.22 241.96 200.69 243.94 206.34 C 245.68 211.85 242.69 217.96 238.02 221.02 C 231.63 224.86 223.16 223.99 217.02 220.05 C 210.54 216.18 206.79 209.08 204.91 201.99 C 202.36 191.60 205.19 180.55 210.66 171.57 Z" />
</g>
<g id="#b42980ff">
<path fill="#b42980" opacity="1.00" d=" M 142.36 241.00 C 146.81 240.99 151.26 240.99 155.71 241.03 C 157.48 244.54 159.65 247.83 162.22 250.81 C 165.59 254.78 168.40 259.29 172.46 262.62 C 179.62 268.57 187.28 273.95 195.34 278.61 C 205.07 283.28 215.67 285.82 226.26 287.71 C 243.35 290.26 260.68 286.53 276.64 280.46 C 282.09 278.38 286.74 274.78 291.63 271.69 C 296.48 268.65 300.88 264.96 305.15 261.17 C 311.10 255.00 316.06 247.98 320.99 240.99 C 325.27 241.00 329.56 241.00 333.85 241.00 C 330.68 263.18 327.52 285.51 320.99 307.00 C 265.74 306.99 210.49 306.99 155.25 307.00 C 148.71 285.51 145.60 263.18 142.36 241.00 Z" />
</g>
</svg>
