<?xml version="1.0" encoding="UTF-8" ?>
<!DOCTYPE svg PUBLIC "-//W3C//DTD SVG 1.1//EN" "http://www.w3.org/Graphics/SVG/1.1/DTD/svg11.dtd">
<svg width="434pt" height="303pt" viewBox="0 0 434 303" version="1.1" xmlns="http://www.w3.org/2000/svg">
<g id="#000000ff">
<path fill="#000000" opacity="1.00" d=" M 120.89 15.36 C 143.21 7.77 166.49 3.04 189.96 0.94 C 206.30 -0.24 222.73 -0.20 239.07 0.97 C 263.90 3.29 288.54 8.45 312.01 16.96 C 314.36 12.01 317.95 7.32 323.13 5.12 C 329.18 2.95 335.65 1.38 342.11 2.46 C 360.21 4.91 377.89 10.07 394.68 17.21 C 400.13 19.37 405.07 22.66 409.65 26.29 C 414.76 31.68 419.75 37.47 422.66 44.39 C 433.29 68.40 434.47 95.34 432.76 121.17 C 431.02 144.21 426.31 166.91 420.02 189.11 C 417.00 198.34 414.43 208.02 408.19 215.72 C 409.26 219.72 409.65 223.92 408.88 228.01 C 405.87 246.89 399.51 265.10 391.38 282.36 C 389.89 286.27 388.09 290.13 385.28 293.29 C 379.19 300.02 369.80 302.48 360.99 302.34 C 342.66 302.26 324.26 303.05 306.01 300.98 C 299.02 300.23 291.86 297.15 288.03 290.99 C 241.33 291.00 194.63 291.02 147.93 290.98 C 145.01 290.40 144.11 293.91 141.95 295.13 C 137.10 299.58 130.37 300.66 124.07 301.35 C 106.76 302.92 89.36 302.30 72.00 302.33 C 61.88 302.42 50.91 298.67 45.60 289.50 C 37.69 273.71 31.03 257.18 27.02 239.95 C 24.94 232.11 23.27 223.75 25.29 215.72 C 22.19 211.23 19.26 206.55 17.58 201.31 C 8.91 175.65 3.13 148.97 0.82 121.97 C -0.87 94.31 0.13 65.14 13.01 39.99 C 16.48 34.66 20.26 29.34 25.20 25.26 C 37.40 15.81 52.70 11.93 67.15 7.29 C 77.68 5.06 88.24 1.86 99.10 2.22 C 104.16 3.24 109.64 3.94 113.82 7.26 C 116.88 9.27 118.74 12.49 120.89 15.36 M 192.53 15.78 C 169.37 17.71 146.13 21.75 124.37 30.11 C 124.48 38.77 123.11 47.37 123.07 56.03 C 121.57 85.07 122.90 114.15 124.38 143.14 C 127.75 125.49 136.32 108.78 149.21 96.20 C 152.79 92.39 157.15 89.45 160.90 85.83 C 173.01 76.98 187.51 72.04 202.13 69.27 C 208.56 67.19 215.38 68.19 222.01 67.96 C 226.49 67.73 230.72 69.44 235.09 70.16 C 247.16 72.55 258.90 76.93 269.22 83.70 C 277.84 90.03 285.62 97.44 292.64 105.49 C 296.16 110.13 298.67 115.42 301.62 120.41 C 304.43 127.71 307.49 135.03 308.68 142.82 C 311.08 120.31 310.98 97.62 310.96 75.01 C 310.99 60.61 310.18 46.22 308.92 31.88 C 272.14 17.27 231.81 13.24 192.53 15.78 M 42.75 31.83 C 35.40 34.98 29.79 41.04 25.78 47.81 C 22.27 55.32 19.26 63.14 17.96 71.38 L 17.50 71.36 C 16.19 78.84 15.00 86.39 15.11 94.00 C 14.98 107.59 14.61 121.35 17.16 134.75 C 19.96 155.52 24.52 176.09 31.43 195.89 C 33.65 201.86 36.96 208.16 43.03 210.93 C 67.62 209.24 92.11 206.06 116.68 204.07 C 113.76 187.47 111.84 170.72 110.56 153.92 C 108.91 136.32 107.97 118.66 107.59 101.00 C 107.93 89.57 107.66 78.14 107.83 66.71 C 108.14 56.94 108.78 47.19 109.29 37.43 C 109.26 32.20 110.26 26.49 107.23 21.83 C 104.51 16.82 97.89 16.83 92.94 17.32 C 75.55 19.33 58.74 24.87 42.75 31.83 M 330.87 18.07 C 326.74 19.33 324.75 23.94 324.30 27.91 C 324.05 33.69 324.27 39.50 325.07 45.23 C 325.10 45.77 325.17 46.83 325.20 47.36 C 326.72 82.90 326.36 118.58 322.98 154.01 C 321.87 166.77 320.84 179.56 318.77 192.20 C 318.17 196.15 317.30 200.07 317.00 204.06 C 340.66 206.15 364.28 208.76 387.94 210.91 C 389.35 211.04 390.90 211.09 392.07 210.13 C 397.49 206.86 400.29 200.85 402.39 195.13 C 409.14 175.40 413.80 154.96 416.38 134.27 L 416.99 134.75 C 417.95 128.54 418.41 122.27 418.70 115.99 C 419.12 101.10 419.55 85.99 416.31 71.36 L 415.69 71.38 C 413.12 59.81 409.66 47.63 401.08 39.00 C 397.83 35.37 393.44 33.01 389.06 31.04 C 374.04 24.70 358.37 19.61 342.16 17.48 C 338.41 17.16 334.46 16.62 330.87 18.07 M 205.13 84.07 C 183.59 86.98 163.62 99.46 151.34 117.36 C 142.07 130.64 137.03 146.85 137.30 163.05 C 137.16 183.16 145.32 203.17 159.36 217.56 C 174.12 233.14 195.52 242.37 217.03 241.83 C 249.81 242.50 281.15 219.88 291.52 188.90 C 296.18 176.26 296.81 162.38 294.86 149.14 C 291.22 126.84 277.35 106.52 258.03 94.83 C 242.40 85.09 223.30 81.44 205.13 84.07 M 287.33 225.30 C 280.65 232.01 274.23 239.38 265.61 243.64 C 253.58 250.90 239.74 254.40 226.05 256.93 C 217.02 257.01 207.72 258.02 198.98 255.20 C 186.32 252.62 173.91 248.19 163.19 240.87 C 156.89 236.62 151.47 231.24 146.22 225.79 C 140.14 219.88 135.52 212.58 132.14 204.84 C 134.34 219.92 138.19 234.70 141.54 249.55 C 143.25 258.49 146.07 267.15 148.14 276.00 C 193.95 275.97 239.75 276.06 285.56 275.95 C 286.59 269.53 288.90 263.43 290.28 257.09 C 294.38 239.39 298.65 221.72 301.82 203.83 C 298.20 211.69 293.64 219.29 287.33 225.30 M 114.19 219.24 C 91.49 221.41 68.81 223.79 46.11 225.87 C 43.79 226.21 41.54 225.52 39.30 225.02 C 41.98 244.63 49.64 263.14 58.03 280.92 C 59.95 285.58 65.35 287.34 70.02 287.27 C 88.49 287.37 107.02 287.91 125.43 286.19 C 128.41 285.95 132.04 285.23 133.39 282.18 C 134.18 276.71 131.43 271.62 130.35 266.39 C 126.42 250.47 122.86 234.47 119.45 218.44 C 117.70 218.78 115.95 219.08 114.19 219.24 M 302.64 268.48 C 301.51 273.13 299.19 277.86 300.42 282.73 C 302.27 285.68 306.04 286.00 309.18 286.31 C 327.08 287.86 345.07 287.36 363.02 287.29 C 367.69 287.42 373.14 285.87 375.30 281.32 C 383.86 263.45 391.49 244.77 394.28 225.03 C 389.30 226.76 384.08 225.38 378.99 225.13 C 360.68 223.27 342.36 221.54 324.05 219.68 C 320.77 219.37 317.46 219.19 314.26 218.34 C 310.35 235.04 306.97 251.88 302.64 268.48 Z" />
</g>
<g id="#ed492dff">
<path fill="#ed492d" opacity="1.00" d=" M 192.53 15.78 C 231.81 13.24 272.14 17.27 308.92 31.88 C 310.18 46.22 310.99 60.61 310.96 75.01 C 310.98 97.62 311.08 120.31 308.68 142.82 C 307.49 135.03 304.43 127.71 301.62 120.41 C 298.67 115.42 296.16 110.13 292.64 105.49 C 285.62 97.44 277.84 90.03 269.22 83.70 C 258.90 76.93 247.16 72.55 235.09 70.16 C 230.72 69.44 226.49 67.73 222.01 67.96 C 215.38 68.19 208.56 67.19 202.13 69.27 C 187.51 72.04 173.01 76.98 160.90 85.83 C 157.15 89.45 152.79 92.39 149.21 96.20 C 136.32 108.78 127.75 125.49 124.38 143.14 C 122.90 114.15 121.57 85.07 123.07 56.03 C 123.11 47.37 124.48 38.77 124.37 30.11 C 146.13 21.75 169.37 17.71 192.53 15.78 Z" />
</g>
<g id="#fec800ff">
<path fill="#fec800" opacity="1.00" d=" M 42.75 31.83 C 58.74 24.87 75.55 19.33 92.94 17.32 C 97.89 16.83 104.51 16.82 107.23 21.83 C 110.26 26.49 109.26 32.20 109.29 37.43 C 99.45 43.86 88.98 49.28 78.41 54.40 C 63.85 61.34 48.71 67.37 32.83 70.46 C 27.94 71.45 22.93 71.61 17.96 71.38 C 19.26 63.14 22.27 55.32 25.78 47.81 C 29.79 41.04 35.40 34.98 42.75 31.83 Z" />
<path fill="#fec800" opacity="1.00" d=" M 330.87 18.07 C 334.46 16.62 338.41 17.16 342.16 17.48 C 358.37 19.61 374.04 24.70 389.06 31.04 C 393.44 33.01 397.83 35.37 401.08 39.00 C 409.66 47.63 413.12 59.81 415.69 71.38 C 403.28 72.19 391.21 68.38 379.59 64.49 C 360.40 57.50 341.99 48.33 324.69 37.47 C 324.87 40.06 324.99 42.64 325.07 45.23 C 324.27 39.50 324.05 33.69 324.30 27.91 C 324.75 23.94 326.74 19.33 330.87 18.07 Z" />
<path fill="#fec800" opacity="1.00" d=" M 325.20 47.36 C 326.64 63.86 326.38 80.42 326.48 96.96 C 345.09 99.41 363.17 105.11 380.32 112.66 C 393.12 118.41 405.60 125.18 416.38 134.27 C 413.80 154.96 409.14 175.40 402.39 195.13 C 400.29 200.85 397.49 206.86 392.07 210.13 C 390.90 211.09 389.35 211.04 387.94 210.91 C 364.28 208.76 340.66 206.15 317.00 204.06 C 317.30 200.07 318.17 196.15 318.77 192.20 C 320.84 179.56 321.87 166.77 322.98 154.01 C 326.36 118.58 326.72 82.90 325.20 47.36 Z" />
<path fill="#fec800" opacity="1.00" d=" M 107.51 96.96 C 107.79 86.88 107.17 76.78 107.83 66.71 C 107.66 78.14 107.93 89.57 107.59 101.00 C 107.97 118.66 108.91 136.32 110.56 153.92 C 111.84 170.72 113.76 187.47 116.68 204.07 C 92.11 206.06 67.62 209.24 43.03 210.93 C 36.96 208.16 33.65 201.86 31.43 195.89 C 24.52 176.09 19.96 155.52 17.16 134.75 C 27.96 125.28 40.78 118.49 53.79 112.60 C 70.91 105.08 88.94 99.41 107.51 96.96 Z" />
<path fill="#fec800" opacity="1.00" d=" M 205.13 84.07 C 223.30 81.44 242.40 85.09 258.03 94.83 C 277.35 106.52 291.22 126.84 294.86 149.14 C 296.81 162.38 296.18 176.26 291.52 188.90 C 281.15 219.88 249.81 242.50 217.03 241.83 C 195.52 242.37 174.12 233.14 159.36 217.56 C 145.32 203.17 137.16 183.16 137.30 163.05 C 137.03 146.85 142.07 130.64 151.34 117.36 C 163.62 99.46 183.59 86.98 205.13 84.07 M 199.72 108.79 C 185.10 113.33 172.57 124.13 165.94 137.94 C 160.59 148.73 159.14 161.27 161.26 173.09 C 164.31 189.76 175.37 204.72 190.42 212.52 C 200.30 217.84 211.73 219.67 222.84 218.66 C 248.65 216.65 271.36 193.91 272.98 168.04 C 274.96 147.13 264.46 125.50 246.39 114.63 C 232.67 106.01 215.15 103.94 199.72 108.79 Z" />
</g>
<g id="#ffef9fff">
<path fill="#ffef9f" opacity="1.00" d=" M 78.41 54.40 C 88.98 49.28 99.45 43.86 109.29 37.43 C 108.78 47.19 108.14 56.94 107.83 66.71 C 107.17 76.78 107.79 86.88 107.51 96.96 C 88.94 99.41 70.91 105.08 53.79 112.60 C 40.78 118.49 27.96 125.28 17.16 134.75 C 14.61 121.35 14.98 107.59 15.11 94.00 C 15.00 86.39 16.19 78.84 17.50 71.36 L 17.96 71.38 C 22.93 71.61 27.94 71.45 32.83 70.46 C 48.71 67.37 63.85 61.34 78.41 54.40 Z" />
<path fill="#ffef9f" opacity="1.00" d=" M 324.69 37.47 C 341.99 48.33 360.40 57.50 379.59 64.49 C 391.21 68.38 403.28 72.19 415.69 71.38 L 416.31 71.36 C 419.55 85.99 419.12 101.10 418.70 115.99 C 418.41 122.27 417.95 128.54 416.99 134.75 L 416.38 134.27 C 405.60 125.18 393.12 118.41 380.32 112.66 C 363.17 105.11 345.09 99.41 326.48 96.96 C 326.38 80.42 326.64 63.86 325.20 47.36 C 325.17 46.83 325.10 45.77 325.07 45.23 C 324.99 42.64 324.87 40.06 324.69 37.47 Z" />
</g>
<g id="#fee9f9ff">
<path fill="#fee9f9" opacity="1.00" d=" M 199.72 108.79 C 215.15 103.94 232.67 106.01 246.39 114.63 C 264.46 125.50 274.96 147.13 272.98 168.04 C 273.83 156.49 269.07 145.05 261.18 136.74 C 252.23 127.09 239.16 121.29 225.98 121.33 C 210.71 121.01 195.55 129.70 188.09 143.03 C 183.60 151.62 180.87 161.81 183.50 171.40 C 185.37 178.49 189.06 185.65 195.57 189.50 C 201.50 193.43 209.59 194.13 215.99 190.95 C 221.68 187.72 224.75 180.17 221.89 174.06 C 219.56 169.45 215.78 165.35 215.26 160.00 C 214.78 152.95 220.60 146.55 227.44 145.53 C 235.21 144.16 242.89 148.55 247.41 154.68 C 252.82 162.24 256.45 171.58 255.15 181.01 C 253.20 198.60 239.21 213.11 222.84 218.66 C 211.73 219.67 200.30 217.84 190.42 212.52 C 175.37 204.72 164.31 189.76 161.26 173.09 C 159.14 161.27 160.59 148.73 165.94 137.94 C 172.57 124.13 185.10 113.33 199.72 108.79 Z" />
</g>
<g id="#ff67e7ff">
<path fill="#ff67e7" opacity="1.00" d=" M 188.09 143.03 C 195.55 129.70 210.71 121.01 225.98 121.33 C 239.16 121.29 252.23 127.09 261.18 136.74 C 269.07 145.05 273.83 156.49 272.98 168.04 C 271.36 193.91 248.65 216.65 222.84 218.66 C 239.21 213.11 253.20 198.60 255.15 181.01 C 256.45 171.58 252.82 162.24 247.41 154.68 C 242.89 148.55 235.21 144.16 227.44 145.53 C 220.60 146.55 214.78 152.95 215.26 160.00 C 215.78 165.35 219.56 169.45 221.89 174.06 C 224.75 180.17 221.68 187.72 215.99 190.95 C 209.59 194.13 201.50 193.43 195.57 189.50 C 189.06 185.65 185.37 178.49 183.50 171.40 C 180.87 161.81 183.60 151.62 188.09 143.03 Z" />
</g>
<g id="#c61606ff">
<path fill="#c61606" opacity="1.00" d=" M 287.33 225.30 C 293.64 219.29 298.20 211.69 301.82 203.83 C 298.65 221.72 294.38 239.39 290.28 257.09 C 288.90 263.43 286.59 269.53 285.56 275.95 C 239.75 276.06 193.95 275.97 148.14 276.00 C 146.07 267.15 143.25 258.49 141.54 249.55 C 138.19 234.70 134.34 219.92 132.14 204.84 C 135.52 212.58 140.14 219.88 146.22 225.79 C 151.47 231.24 156.89 236.62 163.19 240.87 C 173.91 248.19 186.32 252.62 198.98 255.20 C 207.72 258.02 217.02 257.01 226.05 256.93 C 239.74 254.40 253.58 250.90 265.61 243.64 C 274.23 239.38 280.65 232.01 287.33 225.30 Z" />
</g>
<g id="#f0a900ff">
<path fill="#f0a900" opacity="1.00" d=" M 114.19 219.24 C 115.95 219.08 117.70 218.78 119.45 218.44 C 122.86 234.47 126.42 250.47 130.35 266.39 C 131.43 271.62 134.18 276.71 133.39 282.18 C 132.04 285.23 128.41 285.95 125.43 286.19 C 107.02 287.91 88.49 287.37 70.02 287.27 C 65.35 287.34 59.95 285.58 58.03 280.92 C 49.64 263.14 41.98 244.63 39.30 225.02 C 41.54 225.52 43.79 226.21 46.11 225.87 C 68.81 223.79 91.49 221.41 114.19 219.24 Z" />
<path fill="#f0a900" opacity="1.00" d=" M 302.64 268.48 C 306.97 251.88 310.35 235.04 314.26 218.34 C 317.46 219.19 320.77 219.37 324.05 219.68 C 342.36 221.54 360.68 223.27 378.99 225.13 C 384.08 225.38 389.30 226.76 394.28 225.03 C 391.49 244.77 383.86 263.45 375.30 281.32 C 373.14 285.87 367.69 287.42 363.02 287.29 C 345.07 287.36 327.08 287.86 309.18 286.31 C 306.04 286.00 302.27 285.68 300.42 282.73 C 299.19 277.86 301.51 273.13 302.64 268.48 Z" />
</g>
</svg>
